<svg xmlns="http://www.w3.org/2000/svg" viewBox="0 0 548.9 504.6" enable-background="new 0 0 548.9 504.6"><style type="text/css">.st0{fill-rule:evenodd;clip-rule:evenodd;fill:#FFFFFF;}</style><g id="XMLID_8_"><path id="XMLID_436_" class="st0" d="M276.4 87.4c.1-.3.1-.4-.1-.6 0 .2-.2.5.1.6z"/><path id="XMLID_435_" class="st0" d="M275.6 87.1c-.1-.2.1-.5-.2-.5.1.2-.1.5.2.5z"/><path id="XMLID_434_" class="st0" d="M276.1 85.3c.1-.2-.1-.2-.3-.4-.1.2 0 .2-.1.4.2 0 .3-.1.4 0z"/><path id="XMLID_433_" class="st0" d="M278.6 77.7l.1-.3c-.3 0-.2-.2-.4-.3-.1.3 0 .5.3.6z"/><path id="XMLID_432_" class="st0" d="M275.3 86.1c.2 0 .2-.5 0-.5-.2.1 0 .2-.2.4.1 0 .2 0 .2.1z"/><path id="XMLID_431_" class="st0" d="M278.3 76.8c-.1-.2.1-.3.2-.5-.2 0-.4.1-.5.4l.3.1z"/><path id="XMLID_430_" class="st0" d="M275.3 82c.2 0 .1-.5-.2-.5-.2.3.3.2.2.5z"/><path id="XMLID_429_" class="st0" d="M277.7 74.3c0-.1-.2-.2 0-.2.1-.2-.3-.2-.4-.2.2-.2.1-.4.1-.7-.4.2-.6-.2-.9-.4.1.2.2.3.1.6.3-.2.2 0 .5.2l-.2.2c.2.1.3.2.2.5.2 0 .4.1.6 0z"/><path id="XMLID_428_" class="st0" d="M275.1 81.1l.1-.3c-.1 0-.3 0-.2-.1-.2 0-.2.5.1.4z"/><path id="XMLID_427_" class="st0" d="M273.2 81.2c0-.2-.2-.3-.4-.4 0 .1.1.5.4.4z"/><path id="XMLID_426_" class="st0" d="M268.8 57.4c-.7-1.4-2.6-3.7-2.9-3.7.9 1.3 1.8 2.5 2.9 3.7z"/><path id="XMLID_425_" class="st0" d="M272.5 79.4c-.1-.2.1-.5-.3-.6 0 .3.1.5.3.6z"/><path id="XMLID_424_" class="st0" d="M269.1 65.3c-1.3-2-1.3-1.8-3.2-4.1.4.6.8 1.2 1.2 1.9.9.6 2.1 3 2 2.2z"/><path id="XMLID_423_" class="st0" d="M270.8 77.9c-.2 0 0 .4-.2.7.3 0 .2-.5.2-.7z"/><path id="XMLID_422_" class="st0" d="M270.2 75.7c-.1-.2-.1-.4-.4-.5 0 .3.2.5.1.8.2.1.1-.4.3-.3z"/><path id="XMLID_421_" class="st0" d="M242.4 31.6c.9.3-2.5-2.2-3.5-2.9-.4-.1.2.4 1.1 1.1.9.5 2 1.4 2.4 1.8z"/><path id="XMLID_420_" class="st0" d="M238 29.7c.4.5 1 .8 1.5 1.2.5.4 1.1.8 1.4 1.3.9.6 1.1.5.5-.3-1.4-.7-3.1-2.4-3.4-2.2z"/><path id="XMLID_419_" class="st0" d="M212.2 10.5c-.9-.5-1.9-.9-2.9-1.4l-1.5-.6c-.5-.2-1.1-.3-1.6-.5l1.5.6 1.5.6c1 .5 2 .9 3 1.3z"/><path id="XMLID_418_" class="st0" d="M267.7 78.7c.1-.2 0-.3.1-.4-.2-.1-.3.1-.4.3l.3.1z"/><path id="XMLID_417_" class="st0" d="M268.3 76.5c.2-.3 0-.4 0-.6-.2.1-.3.6 0 .6z"/><path id="XMLID_416_" class="st0" d="M267.3 77.5c0-.1 0-.1-.1-.1 0-.3-.1-.5-.2-.7l-.1-.2c-.1-.1 0 .1-.3-.6-.5-.9-1-1.8-1.5-2.8-1.5-1.9-.9-.6-1.8-1.7 1.1 2.1 1.2 1.5 2.2 3.1.4.9.4 1 .4 1.2 0 .1 0 .1.1.3 0 .1.1.2.2.3 0 .1.1.2.2.3.3-.2.4.2.6.3-.1.2 0 .3-.1.5.2.3.2-.1.4.1z"/><path id="XMLID_415_" class="st0" d="M215 15.1c1 .6-2.1-.8-2.8-1.1-.7-.1-.2.1.6.4.7.3 1.7.7 1.9 1 2.2.9 1 .2 1.9.4-1.3-.7-2.6-1.5-4-2.1-.8-.2-.6 0 .1.3.6.3 1.6.8 2.3 1.1z"/><path id="XMLID_414_" class="st0" d="M264.1 83.8c0-.2.2-.5-.1-.6 0 .2-.1.4.1.6z"/><path id="XMLID_413_" class="st0" d="M263.8 84c.2 0 .1-.4-.1-.4-.3.3.1.2.1.4z"/><path id="XMLID_412_" class="st0" d="M263.9 83c-.2-.1-.3 0-.5 0 0 .1.1.2.1.3.2.1.3-.1.4-.3z"/><path id="XMLID_411_" class="st0" d="M208.5 12.5c.2-.1-.8-.6-2.1-1.1-1.3-.5-2.9-1-3.6-1.3-.9-.1.1.3 1.5.9.7.3 1.5.5 2.3.8.8.2 1.5.5 1.9.7z"/><path id="XMLID_410_" class="st0" d="M261.1 86.7c0-.2-.3-.3-.7-.5.2.2.3.4.7.5z"/><path id="XMLID_409_" class="st0" d="M187.8 5.9c-.1.2 2.6 1 4.3 1.2.2-.1-2.4-1.1-4.3-1.2z"/><path id="XMLID_408_" class="st0" d="M263.9 79c.1-.3-.4-.8-.5-.3.3-.1.3.2.5.3z"/><path id="XMLID_407_" class="st0" d="M249.9 52.7c.1-.2-.8-1.2-1.8-2.3-.5-.6-1.1-1.2-1.7-1.7-.6-.5-1.2-1-1.6-1.3.7.8.2.5-.3.1 1.5 1.8 3.9 3.3 5.4 5.2z"/><path id="XMLID_406_" class="st0" d="M261.6 83c.2-.3 0-.5-.2-.7.2.2-.1.6.2.7z"/><path id="XMLID_405_" class="st0" d="M177.2 4c-.9-.1-1.7-.2-1.1-.2-1.9 0-3.7-.2-5.5-.4-1.8-.1-3.6-.2-5.5-.1 1.3 0 2.5.1 3.5.2.5 0 1 .1 1.5.1.5.1.9.1 1.4.2 1.8.3 3.4.4 5.7.2z"/><path id="XMLID_404_" class="st0" d="M254.6 64.5c-.5-1-1.5-1.9-2.4-2.8.4.5.8 1.1 1.1 1.7.2-.1.7.4 1.3 1.1z"/><path id="XMLID_403_" class="st0" d="M163.9 3.2c1.5-.2-1.7-.1-2.2-.3.9.4-2 .1-4.1.4 1.2.3 2.7-.3 3.9 0 .9-.1 1.7-.2 2.4-.1z"/><path id="XMLID_402_" class="st0" d="M157.2 3.1c-3.6-.1-4.2-.5-7.2-.1 3.4 0-1.1.5 2 .5.1-.2.9-.3 2-.3s2.3 0 3.2-.1z"/><path id="XMLID_401_" class="st0" d="M250.9 64c-1.4-1.9-3.7-4.4-2.7-2.6 1.5 1.4 1.9 2 2.7 2.6z"/><path id="XMLID_400_" class="st0" d="M138.1 4.4c-2.1 0-4.5.5-6.7.8-1.1.1.3-.4 1.8-.7-1.9.2-2.9.5-4 .8-1.1.3-2.4.7-5 1.1 1.1 0 1.2-.1 3.3-.2 2.5-.7-.8.1-1.6 0 2-.4 4.1-.6 6.1-.9 2-.3 4-.5 6.1-.9z"/><path id="XMLID_399_" class="st0" d="M190.2 15c-2.2-.7-5-1-6-1 2.3.6 4.9 1.1 6 1z"/><path id="XMLID_398_" class="st0" d="M218.6 31.1c-1.6-.9-.5-.4-1.6-1.2-.9-.3-.5 0-.8.1.7.5 1.6.7 2.4 1.1z"/><path id="XMLID_397_" class="st0" d="M174 16c-2.2-.3-4.5-.6-6.9-.3 2.2-.1 6.2.6 6.9.3z"/><path id="XMLID_396_" class="st0" d="M200.4 29.7c-.9-.6-2.1-.8-3.1-1.3-1.7-.4 2.3 1.1.7.6.7.3 1.6.4 2.4.7z"/><path id="XMLID_395_" class="st0" d="M219.7 43.6c-1.4-1.2-3.1-2.1-5-2.9.8.5 1.9 1.1 2.9 1.7 1 .6 1.8 1.2 2.1 1.2z"/><path id="XMLID_394_" class="st0" d="M119.9 18.2c-.7.1-1.3.2-2 .3-.2.1-.3.3-1 .4-1 .4 2.2-.3 3-.7z"/><path id="XMLID_393_" class="st0" d="M188.5 27.3c-1.9-.7-4.1-.9-5.9-1.6-.9-.1.2.3.2.5-1.4-.2-3.3-.6-3.4-.4 1.1.3 2.3.1 3.3.6 1-.2 3.5.7 5.8.9z"/><path id="XMLID_392_" class="st0" d="M110 22.4c-.8.3-1.7.4-2.5.7-1.6.8 0 .4 1.5 0 2.2-.8-1.2.2 1-.7z"/><path id="XMLID_391_" class="st0" d="M160.5 24.3c-.1-.3-6.7-.3-7 .2.6 0 1.2-.1 1.8-.1.6 0 1.2 0 1.8-.1 1.1-.1 2.2-.1 3.4 0z"/><path id="XMLID_390_" class="st0" d="M164 26.5c-.8-.1-1.5-.2-2.4-.2-.8 0-1.7.1-2.6.3h2.5c.9 0 1.7 0 2.5-.1z"/><path id="XMLID_389_" class="st0" d="M135.7 25.1c-1.6.2-3.3.3-4.9.8 1.6-.2 3.2-.4 4.9-.8z"/><path id="XMLID_388_" class="st0" d="M118.1 28.2c-1.1.2-2.3.6-3.4.9-.5.3.8 0 1.4-.1.7-.3 1.4-.5 2-.8z"/><path id="XMLID_387_" class="st0" d="M110.9 30.6c-1.3.1-2.5.9-3.8 1.2-.5.3 2.8-.6 3.8-1.2z"/><path id="XMLID_386_" class="st0" d="M48 63.3c-.3.5-.1.3.1.1-.4.6-.9 1-1.4 1.5-.7 1.1-.1.9-1.4 2.4-1 1.7 1.7-2.2.7-.6.4-.7 1.4-2 2.1-3 .6-.9.9-1.4-.1-.4z"/><path id="XMLID_385_" class="st0" d="M44.7 68.3c-.5.5-.9 1.1-1.2 1.7-.5.6-1 1.1-.8.6-.6.6-.9 1.6-1.4 2.4.6-.6 1.1-1.3 1.6-1.9.6-1 1.3-1.7 1.8-2.8z"/><path id="XMLID_384_" class="st0" d="M37.2 77.5c-.8 1.2-1.4 2.5-2 3.8.8-1.1 1.4-2.4 2-3.8z"/><path id="XMLID_383_" class="st0" d="M85.9 40.9c-1.8 1-1.6 1.4-.8 1 2.2-1.3.5-.7.8-1z"/><path id="XMLID_382_" class="st0" d="M89.5 39.7c-2.3 1.1-5.5 2.9-6.4 3.9 1-.7 2.1-1.3 3.2-1.9 1.1-.6 2.2-1.1 3.2-2z"/><path id="XMLID_381_" class="st0" d="M83 42.7c-.7.5-1.4.9-2.1 1.3-.7.5-1.4 1-2 1.5.7-.4 1.4-.9 2-1.4l2.1-1.2c.4-.2-.6.3 0-.2z"/><path id="XMLID_380_" class="st0" d="M75.7 46.3c-3.5 2.8-4.3 3.2-1.8 2.1 1.5-1.4 1.3-1.5 1.8-2.1z"/><path id="XMLID_379_" class="st0" d="M29.9 91.8c-.8 1.5-1.5 3.1-2.1 4.9.7-1.6 1.6-3.1 2.1-4.9z"/><path id="XMLID_378_" class="st0" d="M20.8 116.1c-.2 1.3-.5 2.5-.8 3.6-.3 1.1-.5 2.2-.7 3.3-.4 2.1-.7 3.9-.8 5.4.4-1.9.7-3.9 1.1-5.8.4-1.9.9-3.9 1.2-5.8.2-.5 0 .6 0 1.2 1.2-3.4.8-3.8 0-1.9z"/><path id="XMLID_377_" class="st0" d="M54.2 67.5c-1.8 1.9-.3 1.1-1.4 2.2.1.4 2-2.8 1.4-2.2z"/><path id="XMLID_376_" class="st0" d="M52.7 69.6c-1 1.1-1.8 2.3-2.5 3.8.9-1.2 1.7-2.5 2.5-3.8z"/><path id="XMLID_375_" class="st0" d="M16.5 140.6c-.2.7-.3 1.3-.5 2 0 1.1.1.6.1 1.8.2-1.3.5-2.5.4-3.8z"/><path id="XMLID_374_" class="st0" d="M34.8 97.4c-.2.8.4-.3-.3 1.7 1-2.1 1.8-5.1.3-1.7z"/><path id="XMLID_373_" class="st0" d="M27 169.3c-.3 2.3.1 4.3.4 4.6 0-1.5-.2-3.1-.4-4.6z"/><path id="XMLID_372_" class="st0" d="M34.5 218.7c.4 2 .9 1.8 1.5 4.2.1 1-.9-1.8-1.2-2.4.5 1.9 1.3 3.5 1.9 4.2-.4-1.2-.5-1.7-.4-1.9.5 1 .9 2 1.2 3 .3 1 .7 2 1.3 3-.5-1.1-.9-2.2-1.1-3.2-1.3-2.6-2.1-5.1-2.3-6.5-.3 0 .2 2.2-.9-.4z"/><path id="XMLID_371_" class="st0" d="M41.6 236.3l.6 1.8c1.1 1.7 1 1.8 1.7 2.7-.5-1.7-2.3-4.1-1.2-2.7-.4-1.2-1-1.7-1.1-1.8z"/><path id="XMLID_370_" class="st0" d="M44.6 243.1c.2-.1 1.1 1.4 1.9 2.6-.2-.4-.3-.9-.5-1.4-.3-.4-.6-.9-.8-1.3-.3 0 .1.5-1-1.3.4.9 0 .4.4 1.4z"/><path id="XMLID_369_" class="st0" d="M48.2 250.2c1.1 1.4 1.7 2.9 2.8 4.3-1-1.9-2.4-3.8-3.1-5.7-.7-.7.3.7.3 1.4z"/><path id="XMLID_368_" class="st0" d="M53.1 257c-.9-1.2-1.4-1.6-.7-.3.4.6.8 1.1 1.2 1.7 0-.1-.1-.6-.5-1.4z"/><path id="XMLID_367_" class="st0" d="M53.7 258.3c.4.8 0 .4.5 1.4.6.8.5.3 1 1.2.4.4-.3-.7-.5-1.3-.3-.4-.7-.9-1-1.3z"/><path id="XMLID_366_" class="st0" d="M55.9 260.8c-.3-.2 1.5 3.2 2.6 4.2-.8-1.4-1.6-2.9-2.6-4.2z"/><path id="XMLID_365_" class="st0" d="M73.3 284.4c1 .8 1.8 1.7 2.7 2.6-.6-1-1.7-1.8-2.2-2.8-.8-.7-1.7-1.4-.5.2z"/><path id="XMLID_364_" class="st0" d="M84.3 296.1c.8 1.1 1.8 2 2.9 3l-1.2-1.6c-.5-.5-1.1-.9-1.7-1.4z"/><path id="XMLID_363_" class="st0" d="M91.3 303.1c.7.7 1.4 1.5 2.2 2.2l2.2 2.2c1.4 1.1-2.1-2.4-.7-1.3-.9-.9-.9-.7-1.3-1-.9-.7-1.4-1.5-2.4-2.1z"/><path id="XMLID_362_" class="st0" d="M96.8 307.4c.8.9 1.9 1.6 2.7 2.5 0-.3-1-1.3-2.4-2.6-.7-.6.9 1-.3.1z"/><path id="XMLID_361_" class="st0" d="M104.8 316c2.7 1.9 4.7 4.1 7.1 6.2 1.9 1.1-2.6-2.7-3.3-3.8-.7-.1-.1.4-2.9-1.8-1.5-1.6-1-1.5-3.1-3.3-.5-.2.4.6 2.2 2.7z"/><path id="XMLID_360_" class="st0" d="M106 315.9c1.6 1.5 3.5 2.9 5.1 4.5 0-.2-3.3-3.4-5.1-4.5z"/><path id="XMLID_359_" class="st0" d="M114.7 322.9c.6.6 1.3 1.1 1.8 1.8 1.3.8-.7-1 .9.1-.8-.7-1.6-1.3-2.5-2 1.5 1.5 1.6 1.4-.2.1z"/><path id="XMLID_358_" class="st0" d="M126.5 332.5c.5.6 1.3 1.2 1.9 1.7-.2-.3 1 .4 0-.6-.3.1-.6-.3-1.9-1.1z"/><path id="XMLID_357_" class="st0" d="M241.8 472c-.1 1.1 0 2 .1 2.7.2-1 .3-1.9.4-2.7-.2-.1-.4 0-.5 0z"/><path id="XMLID_356_" class="st0" d="M263.4 463.3c1.1-.3 2.2-1.2 3.3-1.7.7-.6-2.5 1-3.3 1.7z"/><path id="XMLID_355_" class="st0" d="M310.2 436.1c.1.3 3.9-2.2 5.4-3.4-1.8 1.1-3.6 2.3-5.4 3.4z"/><path id="XMLID_354_" class="st0" d="M332.1 422.1c2.1-1.6 5.9-4.2 6.5-4.9-2 1.4-5.9 4.1-6.5 4.9z"/><path id="XMLID_353_" class="st0" d="M374.5 391.5c1.6-1 3.1-2.3 4.7-3.4 0-.3-3.5 2.1-4.7 3.4z"/><path id="XMLID_352_" class="st0" d="M417.5 357.7c.1-.3 1-1.2 1-1.5-.8.7-1.6 1.4-2.3 2.2.8-.6.4-.1 1.3-.7z"/><path id="XMLID_351_" class="st0" d="M540.8 224.4c.4-1.1.8-2.1 1.1-3.2.3-1.1.6-2.3.8-3.4.5-2.3 1.1-4.5 1.7-6.7-.2.5-.5 1.3-.8 2.3-.3 1-.6 2.2-1 3.5-.3 1.3-.6 2.7-.9 4-.3 1.3-.7 2.5-.9 3.5z"/><path id="XMLID_350_" class="st0" d="M544.4 210.4c.6-1.7 1-3.6 1.2-5.7-.5 1.9-.9 3.7-1.2 5.7z"/><path id="XMLID_349_" class="st0" d="M484 284.7c.2-.4.1-.5-.5.1 2.1-2.8 2.7-3.5 4.8-6.9-2 2.7-4.1 5.5-6.1 8.4 1.3-1.3 1-.7 1.8-1.6z"/><path id="XMLID_348_" class="st0" d="M494 271.8c-.2-.1 1-2.3-.1-.9-1.1 1.8-.9 2.1.1.9z"/><path id="XMLID_347_" class="st0" d="M490.7 274.7c-.2.5.6-.5 1.1-1 .7-1.3.9-1.8.9-2.1-.7.9-1.1 2.2-2 3.1z"/><path id="XMLID_346_" class="st0" d="M526.1 160.5c.1-1.9-.3-2.8-.5-3.7 0 1 .1 2 .3 3.1.1-.5.1.3.2.6z"/><path id="XMLID_345_" class="st0" d="M524.9 152.5c.1-1.3-.5-3.2-.6-3.2.2 2.2.3 3.2.6 3.2z"/><path id="XMLID_344_" class="st0" d="M524.5 143.5c-.1-2.2-.5-4.4-.8-6.5-.4-2.2-.7-4.4-1.2-6.5-.1.9-.6-1.8-1.1-3.5.6 3 1.2 5.4 1.7 8 .2 1.3.5 2.6.8 4 .1.7.3 1.4.4 2.2 0 .7.1 1.5.2 2.3z"/><path id="XMLID_343_" class="st0" d="M522 128.5c-.1-.9-.3-1.8-.5-2.7-.2-.9-.5-1.8-.8-2.7.2.9.3 1.8.5 2.7.2.8.4 1.8.8 2.7z"/><path id="XMLID_342_" class="st0" d="M520.2 121.1c-.2-1-.4-1.9-.7-2.9-.2-1-.4-2-.8-2.9-.1.3.7 3.9 1.5 5.8z"/><path id="XMLID_341_" class="st0" d="M519.3 115.8c-.7-2.4-.8-3.3-1.2-4.8-.7-1.3-1-2.3-.9-1 .6.4 1.3 3.9 2.1 5.8z"/><path id="XMLID_340_" class="st0" d="M514.7 112.7c.4.6-.6-2.8-1.2-3.7.1.8.4 1.5.5 2.3.5.8.5.4.7 1.4z"/><path id="XMLID_339_" class="st0" d="M508.8 91.3c.3.5.2.2.1 0l-.3-.9c-.2-.3-.5-.8-.8-1.4-.4-.6-.8-1.4-1.2-2.1-.9-1.6-1.8-3.3-2.8-4.5.3.6.3.7.1.4 1.3 1.9 2.4 3.9 3.7 5.9.4 1.1.2.9-.1.4-.3-.5-.8-1.2-.9-1.2.2.5.6 1 .9 1.5.3.5.7 1 .8 1.5.4.6-.5-2.1.5.4z"/><path id="XMLID_338_" class="st0" d="M511.8 104.4c-.5-1.5-1.1-2.9-1.7-4.3-.7-1.4-1.3-2.8-2.1-4.2.7 1.4 1.2 2.8 1.9 4.2.6 1.4 1.4 2.8 1.9 4.3z"/><path id="XMLID_337_" class="st0" d="M502.4 80.3c-.9-1.3-.4-1.5-1.7-3.4.2.8-.2.5-1.6-1.4.5.8 1.1 1.6 1.6 2.4.5.7 1.1 1.5 1.7 2.4z"/><path id="XMLID_336_" class="st0" d="M500.1 77.5c-1.2-1.9-2.7-3.7-4.2-5.4 1.9 2.7 2.4 3.1 4.2 5.4z"/><path id="XMLID_335_" class="st0" d="M486.3 60.8c-.5-.4.7 1 0 .5.6.6 1.2 1.1 1.8 1.7.6.6 1.2 1.1 1.8 1.7l1.7 1.7c.3.3.5.6.8.9.2.3.5.6.7 1 .2-.1 0-.5-.5-1-.4-.5-1.1-1.2-1.9-2l-2.4-2.4c-.7-.8-1.5-1.5-2-2.1z"/><path id="XMLID_334_" class="st0" d="M493.4 69.1c-.5-.7-1-1.4-1.6-2l-1.8-1.8c-1.2-1.2-2.5-2.4-3.8-3.5 1.1 1.2 2.3 2.4 3.5 3.6.6.6 1.2 1.2 1.9 1.8.7.6 1.2 1.3 1.8 1.9z"/><path id="XMLID_333_" class="st0" d="M487.4 63.7c.6 0-2.5-2.4-3.5-3.3 1 1.2 2.5 2.1 3.5 3.3z"/><path id="XMLID_332_" class="st0" d="M486.4 62.2c-.9-1-1.8-2-2.8-2.9-.9-1-2.1-1.8-3.3-2.6 1.1.8 2.2 1.7 3.1 2.7 1 1 1.9 1.9 3 2.8z"/><path id="XMLID_331_" class="st0" d="M476.6 52.7c2 1.9-.9 0-2.3-1.2-.8-1 1.2.5 2.3 1.2-.7-1-2.1-1.5-2.9-2.4-.6-.1-2.3-.9-4.2-2-.9-.5-2-1-2.9-1.5-.9-.5-1.8-.9-2.5-1.3-.1.2 1.3 1 2.8 1.7 1.5.7 3.1 1.6 3.3 1.5 0 .4 2.9 2.1 1.6 1.6 1.7.9 3.1 1.8 4.7 2.8.8.5 1.7 1 2.6 1.6.9.6 1.9 1.3 2.9 2-1.5-1.4-3.3-2.8-5.4-4z"/><path id="XMLID_330_" class="st0" d="M465.4 45.7c.5.2-.5-.6-1-1-1.1-.7-2.5-1.1-3.5-1.8-.2 0 .4.4-.7 0l2.4 1.5c1.3.6.7-.2 2.8 1.3z"/><path id="XMLID_329_" class="st0" d="M460.9 42.4c-1.3-.7-4.4-2.2-2.5-.9 1.7.8 1.3.5 2.5.9z"/><path id="XMLID_328_" class="st0" d="M457.7 41.5c1 .2-1.9-1-2.4-1.5-.6 0-.1.2-2-.6 1.3.9 3 1.4 4.4 2.1z"/><path id="XMLID_327_" class="st0" d="M276.5 90.3c-.1.1-.3-.1-.4.2.1.1.1.2.3.2-.1-.5 1.2-.1.1-.4-.1-.5-.3-1-.2-1.6-.3-.1-.3-.2-.1-.4-.1 0-.1.1-.2.1-.2-.2.2-.2.2-.4-.3.1-.3-.1-.9-.2 0 .3.3.4.5.5-.3.3 0 .4.1.6-.4.6.1 1.1 0 1.4.3.2.3-.5.3-.6.3.1 0 .5.3.6z"/><path id="XMLID_326_" class="st0" d="M276.7 84.3c0-.4-.2-.7-.4-.9 0 .3-.2.2-.2.4.5-.2.3.3.6.5z"/><path id="XMLID_85_" class="st0" d="M276.1 82.8c-.1-.2-.2-.2-.3.1-.1-.1 0-.2 0-.3-.2-.2-.3 0-.5-.1-.1-.4-.2-.7-.6-1 .4-.7-.3-.9-.4-1.4.5-.2.5.6.9.4-.5-.6-.3-1.1-1-1.6.2-.3.3-.5-.2-.6.2-.3.5-.3.7-.1.1-.2-.1-.2-.1-.3-.1.2-.5-.1-.6.3.1-.5-.5-.7-.6-1.2.5.4.9.6 1 .7.3-.4-.6-.8-.9-1.1.3-.2 0-.5-.2-.7-.1 0-.1.1-.2.1s-.1-.1-.1-.1c.1-.1.2 0 .2-.2-.2-.5-.7-.8-1-1.3 0-.1.1-.1.1-.1.4.4.7.5 1 .9 0-.5-.4-.8-.4-1.3-.3 0 0 .2-.1.3-.2 0-.2-.1-.3-.2 0-.3.4-.3.3-.6-.1-.1-.2 0-.4 0 0 .1.1.1.1.1-.1.2-.5.4-.1.3-.1.5-.5.2-.5-.1.3.2 0-.4.4-.3 0-.1 0-.1-.1-.1h-.1l-.1-.1c-.5-.6-.9-1.2-1.3-1.9-.3-.7.1-.2.7.6.3.4.6.9.9 1.3.1 0 .1.1.1.1.2.1.2-.3.4-.2v-.2c-.2-.3-.4-.7-.6-1-.6-.9-1.1-1.8-1.5-2.6.4 0 1.4 1.9 2.3 2.8-.3-.9-.9-1.8-1.5-2.7-.6-.9-1.2-1.7-1.6-2.6-.8-.8 1.2 2.2 1.4 2.9-.9-1.4-1.8-2.8-2.6-4.2 1.1 2.1.2 1.1-.4.6-.3-.4-.6-.9-1-1.4-1.3-2.1 1 1.1-.2-1-.9-1-3.1-4.1-5.2-6.9-2-2.8-3.8-5.1-3.2-4.8-1.2-1.1-2.3-2.5-2.6-2.4-1.7-2.3-.3-.9-1.3-2.3 1.8 2.1 3.9 4.1 5.5 6.4-.7-1.4-4.9-6.4-7.6-8.9-.6-.9.8.5-.4-1-.9-.8-1.9-1.6-2.9-2.6s-2-2-3.2-3.3c-.5-.1-2.3-1.7-1.5-.5-1-1.3-3-2.4-5-4.5.4.7-.5-.1-1.6-.9s-2.3-1.7-2.4-1.6c-3.1-2.6 2.2 1.2.1-.6-1.6-.9-3-1.9-4.3-2.9 0-.2.6 0 .9.1l1.8 1.2c.6.4 1.2.9 1.7 1.3 1.1.9 2.2 1.7 3.3 2.5 2 1.7 4.1 3.3 5.8 4.7-.4-.5-.9-.9-1.4-1.4-.5-.4-1.1-.8-1.4-1.3-3.1-2.2-6-4.5-8.9-6.7-1.5-1.1-2.9-2.2-4.5-3.2s-3.2-1.9-4.9-2.8c-1.4-1-3.3-2.1-5.3-3.2-2.1-1-4.3-2.1-6.4-3.1-2.2-.9-4.2-1.7-5.9-2.5-1.7-.7-3.1-1.2-3.8-1.6-1.1-.4-2.1-.8-3.2-1.1-1.1-.3-2.2-.7-3.3-1-.7 0-2-.3-3.4-.7-1.5-.3-3.1-.7-4.5-1-.1-.1.8 0-.4-.4-.2.1-1.3 0-2.3-.2-1-.2-1.9-.4-1.7-.5-3.2-.3-6.3-.9-9.4-1.2-1.5-.2-3.1-.4-4.7-.5-1.6-.1-3.1-.1-4.7-.1 1.7.2-1.5.2-2.4.3-1-.2 2.5-.2 1.9-.4-2.6-.3-5.2-.2-7.9-.1-2.6.1-5.3.4-7.9.5.1-.2-1.4-.3-3-.2-1.7.1-3.6.4-4.2.6-1-.1-2.2.1-3.3.1-.7.3-2 .5-3.6.7-.8.1-1.6.2-2.6.3-.9.1-1.9.3-2.9.4-4 .5-8.4 1.4-11.6 2.4-4.8.5-13.7 4.2-17.3 5 1.6-.5 3.2-1.2 4.8-1.7-.3 0-.9.1-1.6.4-.7.3-1.6.6-2.7 1-2 .8-4.4 1.7-6.4 2.5-.8.3-2.8 1-4.5 1.7-1.7.7-3.2 1.5-3.3 1.7-1 .7-2.1.8-3.1 1.2-3.5 2.2-7.1 3.8-10.4 6.3-2.1 1.1-5.1 3.2-8.5 5.5-1.6 1.2-3.3 2.5-4.9 3.8-.8.6-1.6 1.3-2.4 2-.8.7-1.5 1.3-2.2 1.9-7.7 6.7-14.6 14.3-20.6 22.6-6 8.3-11 17.2-15.1 26.5-1 2.3-2.1 4.6-2.9 7L15 99.8c-.4 1.2-.9 2.4-1.3 3.6l-2.3 7.2-1.9 7.3C7.6 127.7 6 137.6 5 147.5c-.2 2.5-.4 5-.5 7.4l-.3 3.7-.1 3.7c-.1 2.5-.1 4.9-.2 7.4l.1 7.6c.4 10.1 1.6 20.2 3.7 30.1 2.1 9.9 5.1 19.7 8.9 29.1 3.8 9.4 8.4 18.5 13.5 27.1 10.3 17.3 23 32.8 36.7 47 13.8 14.2 28.6 27 43.9 39 7.6 6 15.4 11.8 23.2 17.5 3.9 2.8 7.8 5.7 11.7 8.5 2 1.4 3.8 2.8 5.7 4.1 1.8 1.4 3.7 2.7 5.5 4.1 14.6 11.2 28.1 23.7 39.3 37.8l3.2 4.2c1.1 1.4 2 2.8 3 4.3 2.2 3.1 4.2 6.3 6.1 9.6 4.8 8.3 8.6 17.1 11 26.1.3 1.1.6 2.2.8 3.4l.4 1.7.1.4v.5l.2 1.6.5 3.2c.1.5.1 1.1.1 1.7l.1 1.8.1 1.8v1.8l-.1 1.9c.3.4.7.7 1 1l.5.5.4.5.8.9.8.9.7.8c.9 1.1 1.6 2 2.2 2.8.6.8 1.1 1.6 1.4 2.3l.2.5.1.2c0 .1.2.1.3.1l1.3.4c1.1.5 0 .2-.6 0l-.8-.3-.2-.1c-.1 0-.1-.1-.1-.1 0-.1-.1-.2-.1-.3-.2-.4-.5-.9-.8-1.4-.3-.5-.7-1-1.1-1.6l-.7-.9-.3-.4-.4-.5c-.6-.7-1.1-1.3-1.9-2.1-.8-.8-1.4-1.5-2.3-2.5-.2-.2-.5-.4-.6-.7l.1-1.3c0-.8.1-1.7 0-2.4l-.3-4.7c-.9-6.8-1.4-8.2-2.2-11.4-.4-1.5-.8-2.9-1.2-4.4-.5-1.4-.9-2.9-1.4-4.3-.6-.8-.8-1.4-1.5-3.2-.1-.5.4.8.7 1.4-.1-.5-.3-.9-.5-1.4-.2-.4-.4-.9-.7-1.3-.4-.9-.9-1.8-1.1-2.7-.8-1.3-.2.3-1-.8-.8-2.6-2.4-5.9-4.3-9.2-1.7-3-3.8-6.1-5.8-8.8-1-1.5-2-3.1-3.1-4.6-1.1-1.5-2.2-3-3.4-4.5-1.2-1.5-2.5-2.9-3.8-4.4-.4-.5-.4-.7-.1-.5-1.5-1.7-3.2-3.5-4.9-5.4-1.8-1.8-3.6-3.7-5.3-5.6-1.8-1.8-3.5-3.5-5.1-4.9-1.6-1.5-3.1-2.7-4.3-3.6-.9-1.1.1-.2-1.3-1.5-.5-.3.2.4.5.8-2-2-4.1-3.8-6.2-5.5-1-.9-2-1.7-3.1-2.5s-2.1-1.6-3.2-2.4c-1.1-.8-2.1-1.6-3.2-2.4l-3.3-2.4c-1.1-.8-2.2-1.7-3.4-2.5-1.2-.9-2.3-1.8-3.6-2.8-1.2-.4-6-4.2-8.4-6-4.1-2.9-7.2-4.8-8.8-6.4-3.7-2.5-7.2-5.1-10.4-7.9-2-1.4.8 1-1.2-.5-.5-.2-2.5-2.2-1.5-1.5-2.6-1.6-4.6-3.6-7.1-5.3-.8-.8-.3-.5.2-.1-3.3-2.3-6.1-4.7-9.2-7.1.1-.5-.2-.2-2.3-2.2-.2.1-1.3-.7-2.4-1.6.1-.1-.3-.5-.9-1.2-1.2-.7-2.7-2-4.4-3.6-1.7-1.6-3.7-3.4-5.9-5-.6-.7-.5-.8-.1-.5-2.4-2.2-6.4-5.8-9.9-9.2-3.5-3.3-6.4-6.4-7.2-6.9-2.4-2.4-4.3-5-7-7.3-1.8-2.4-5.3-6.7-6.5-7.6-6.7-8.1-12.9-16.2-18.6-24.8-5.7-8.6-10.9-17.7-15.3-27.9-.5-1-.4-.4-.7-1.1-.5-1.6-.8-2.2-1.7-4.7-.7-1.4-1.2-2.8-1.8-4.4-.6-1.5-1.2-3.1-1.8-4.7-.5-1.6-1.1-3.3-1.6-5.1-.3-.9-.5-1.7-.8-2.6-.2-.9-.5-1.8-.7-2.7-.5-1.8-1-3.6-1.4-5.4-.4-1.8-.8-3.6-1.2-5.5l-.6-2.7c-.2-.9-.3-1.8-.5-2.7-.3-1.8-.7-3.6-1.1-5.3-.1-1.1.1-.4.1-1.6-.4-2.7-.7-5.3-1.1-8-.2-2.7-.4-5.4-.5-8-.1.1-.2.4-.4.1-.2-.3-.4-1.3-.5-3.9.2-1.5.4-.1.4-3.2.2-.8.5 3.2.3 4.1.3 2.2.4-3.7.1-3.4.1-3.6.2-7.1.2-10.7 0-3.6.2-7.2.7-10.6-.1-.9-.2-2.5.1-4.3.2-1.8.6-3.7.9-5.2 0-1.2-.1-.7-.2-.1.2-1.6.4-3.1.7-4.7.3-1.6.5-3.2.8-4.7.3-1.6.5-3.2.8-4.7.3-1.6.7-3.1 1.1-4.7 0-.6-.2 0-.2-.8.2-1.1.5-2.3.8-3.5.3-1.2.6-2.5 1-3.7.6-2.5 1.2-5.2 2.1-7.7.4-1.3.8-2.5 1.1-3.7.4-1.2.7-2.4 1.2-3.4.8-2.2 1.6-4.1 2.4-5.7.1-.6-.2.1-.3.4 3.8-9.5 8.3-19.1 14.2-27.5 1-1.6 2.1-3.5 3.5-5.4 1.4-1.9 2.8-4 4.5-5.9 3.2-4 6.9-8 10.2-11.2 1.5-1.7-.5 0 1.1-1.7.6-.6 1.1-1.1 1.7-1.6-.3.6-.2.5.3.2.2-.2.5-.5.9-.8.4-.3.8-.7 1.3-1.1.9-.8 2-1.7 3-2.6.5-.4 1-.8 1.4-1.2l1.2-.9c.4-.5-.2-.1-.9.4-.7.6-1.5 1.3-1.9 1.5-.9.4 1.9-1.9 2.6-2.5 3.3-1.6 9.4-6.8 14.4-9.3 1.9-1.3-.4-.1 1.4-1.4.7-.5 1.3-.7 2-1.2.5-.2-.8.7-1.5 1.2 1.5-.8 3-1.5 4.5-2.6.1-.2-1.7.7 0-.4-1 .4-2 1.2-3.1 1.5 1.7-1.2 3.4-1.7 5.1-3 1.7-.5 3.5-1.5 5.2-2.3.5.1-3.4 1.6-4.7 2.5 1.7-.6 1.3-.4.4.1s-2.4 1.3-2.9 1.7c1.2-.5 2.1-1 2.9-1.3.7-.3 1.3-.6 1.8-.9 1.1-.6 2.2-1.1 4.6-2.1.9-.6-1.4.4-1 .1.5-.3 1-.5 1.6-.7.8-.5.3-.4-1.1.2 1.3-.8 2.7-1.4 4-2 1.3-.6 2.7-1.3 4-1.9 1.7-.5 2.6-.8 2.1-.4 1.2-.4 2.4-1 3.5-1.5 1.2-.5 2.4-1 3.6-1.2 1.3-.3-1.7.8-2.2 1.1 1.8-.4 3.3-1.2 2.8-1.2 1.7-.7 3.3-.8 4.9-1.4.6 0-1.3.6 1.1.1.6-.3 1.7-.7 2.8-1l1.8-.6c.6-.2 1.3-.3 1.9-.5 2.5-.6 4.6-.9 4.6-.7 2.4-.5 4.8-.7 7.3-1.5 3 .1 7.6-1.1 8.9-.8 1.6-.5 4.2-.7 7-.8 2.8 0 5.8-.1 8.3-.4 2.3.1 4.7 0 7 0 2.4.1 4.8.2 7.2.4 1.5.2-2.9-.1-.1.2 2-.1 3.9.1 5.9.3 1 .1 1.9.2 2.9.3.9.1 1.9.3 2.8.5 1.9.4 3.8.6 5.6 1l5.7 1.2c-.9-.3-1.9-.5-2.7-.8-.4-.2.9 0 .2-.2 3.4.7 6.5 2 9.9 2.9.7 0-.8-.4-1.5-.6-.9-.5 2.5.7 3.5.8.1.2.6.4 2 1 1.7.2 3.8 1 6.1 2.1 1.1.5 2.3 1.1 3.5 1.6 1.2.5 2.4 1.1 3.5 1.5 1.8 1 1.6 1.1-.4.4 1.2.8 2.8 1.3 4.1 2.1.6.2-.7-.6-1.3-1 1.6.5 2.9 1.3 4.3 2 .7.5.1.3-1.3-.3.9.4 1.9.9 2.8 1.4.9.5 1.7 1 2.6 1.6 1.7 1.1 3.4 2.1 5.1 3.3.4.4-1.3-.6.6.9.6.2 1.7.8 3 1.7 1.3.9 2.8 2 4.3 3.2 1.5 1.2 3 2.5 4.3 3.6 1.3 1.1 2.4 2.1 3.2 2.8.7 1 4 4.2 1.2 1.8 1.7 1.8 2 1.8 2.4 1.9.9.8 1.3 1.4 1.8 2.1.5.7 1 1.4 2.3 2.6-.6-.9-1.6-1.7-2.2-2.5.6.5.7.6.6.3 4 4.1 7.3 8.6 11.3 13-.5 0-.1.3.7 2 1.2 1.3.1-.6-.4-1.5 1.2 1.1 2 2.4 2.8 3.7.8 1.3 1.6 2.5 2.6 3.8 1.7 2.9-1.3-1.1-.4.6 1.4 1.7 1 .7 1.7 1.3 1.4 1.8.9 2 1.7 2.9.2.5-.7-.8-1.3-1.4 1 1.7 2.8 4.3 2.4 3.3.2.4.4.8.5 1.2 0 .1.1.2.1.2v.4c0 .1.1.2-.1.4.4.3.4.4.4.8.2 0 .2-.3.5-.1l.1-.4c-.1-.2-.3 0-.2-.4-.1-.1-.2 0-.2.1-.1-.2-.3-.7-.5-1-1.4-2.5-2.5-4.5-1.7-3.7-.5-1-1.4-1.9-2.1-2.9-.8-1.7.3-.4 1.5 1.4-.5-1.1-3.8-5.9-2.8-3.8-.7-1-1.4-2-2.1-3.1-.7-1-1.4-2-2.4-3-.5-.9 1.7 1.8 1.5 1.3-.9-1.7-5-6.2-3.5-5.1-.8-1.2-1.5-1.5-1-.8-.7-.8-1.3-1.6-2-2.5-.7-.8-1.3-1.6-1.9-2.4-.5-.4-.1.2-.7-.3-1-1-1.7-2-2.8-3 0-.1.3.1.7.3-3.6-3.6-7.3-7-10.9-10.5-.8-1 1.4 1.2 2 1.4-.6-.6-1.2-1.2-1.9-1.8-.7-.6-1.3-1.1-1.9-1.7 2 1.4 3.7 3 5.1 4.7 1.8.9 5.7 5.6 8.4 8.1-5-5.7-10.2-10.3-15.1-14.4-1.3-.8 1.3 1.2 1.5 1.6-3.2-2.2-2.5-2.7-5.8-4.8.9.7 1.8 1.5 2.7 2.2-1.6-.8-2.4-1.9-4-2.7-1.1-1 0-.3.8.2-.7-.6-1.6-1.1-2.3-1.7-.3-.1-1-.5-2-1.1-1-.6-2.2-1.5-3.6-2.3-1.4-.9-2.8-1.8-4.2-2.6-1.4-.8-2.7-1.6-3.7-2.2-.7-.7 2.2 1.4 3.2 1.6-7.1-3.9-14.5-7.2-22-9.9-.5-.3 1.1.2 1.9.3-2.2-1.1-4.3-1.3-4.1-1.1-3.4-.9.3-.3-3-1.4-3.3-.8 2.1.9.3.5-2.4-.7-4.8-1.3-7.2-1.7-2.4-.5-4.8-1.1-7.1-1.6-1 .1-2 0-3.2-.2-1.2-.2-2.5-.4-4-.4-2.1-.3-.5-.3-2.1-.6-3.8-.2-7.5-.3-11.2-.4-.8-.3 3.1-.1 4.2 0-1.2-.2-2.9-.2-4.7-.3-1.8 0-3.6.2-5.2.3-2.1-.1.6-.3-1.5-.4 1.7-.2 4.1-.1 4.1-.4-1.8 0-3.5.1-5 .1-1.6 0-3 .2-4.5.3-1.5.1-2.9.2-4.4.4-1.5.2-3 .4-4.6.6-3.1.1 2.1-.6-.4-.5l-2.3.2-2.3.3c-1.5.2-3 .4-4.6.6-1.5.2-3 .5-4.5.7l-4.5.6c-3.1 1.1-5.1 1.2-6.8 1.5-1.1.4.8.1-1.2.7-4.3.6-14.4 4.5-15 4.2-1.7.7-3.6 1.3-5.5 2-1.9.8-3.9 1.6-5.8 2.4-1.9.8-3.7 1.7-5.3 2.5-1.7.8-3.1 1.6-4.3 2.4-1.6.7-3.3 1.6-4.9 2.5-1.6 1-3.2 1.9-4.8 2.7-1.1.8-2.1 1.6-3.2 2.3-1.1.7-2.1 1.5-3.1 2.4-1.8 1.1-.6.1-2 1L57 33.5l-1 .8-1 .9-2 1.7c-2.7 2.2-5.1 4.7-7.6 7.1-1.3 1.2-2.4 2.5-3.6 3.8-1.2 1.3-2.4 2.5-3.5 3.8-2.2 2.6-4.5 5.2-6.5 8-.1.4-.9 1.8.5-.2-6.9 9-12.7 18.9-17 29.6-.5 1.3-1.1 2.5-1.7 3.7-.6 1.2-1.1 2.4-1.6 3.7-.1.5.4-.6.2.2-.6 1.6-1.4 3.4-2.1 5.4-.7 2-1.3 4.3-1.9 6.7-.5 1-.9 2.1-1.2 3.1-2.8 11.6-5 23-6.2 34.5 0 .4.1.1.1.7-.3 2.5-.4 5-.6 7.5l-.3 3.8c-.1 1.3-.1 2.5-.1 3.8-.1 2.5-.1 5-.2 7.5 0 2.6.1 5.1.1 7.7.4 10.3 1.6 20.6 3.6 30.7.6 1.6 1.4 5.8 2.8 10.7.3 1.2.7 2.5 1 3.8.4 1.3.8 2.5 1.2 3.8.4 1.3.8 2.5 1.2 3.7.4 1.2.8 2.3 1.2 3.4.9 2.3 1.6 4.3 2.4 6.1.8 1.8 1.5 3.5 2 5.2l1.2 2.1c.6 2.2 3.4 6.8 4.9 10.4.6 1.1 1.3 2.2 1.9 3.4.7 1.2 1.4 2.3 2.1 3.6.7 1.2 1.5 2.5 2.2 3.8.8 1.3 1.6 2.6 2.4 3.8.8 1.3 1.6 2.6 2.5 3.9.9 1.3 1.7 2.5 2.6 3.8 1.7 2.6 3.6 4.9 5.4 7.2.4.6.7 1.3 1.1 1.9 1.2 1.4 2.4 2.9 3.5 4.3l1.7 2.1 1.8 2.1c1.2 1.4 2.4 2.8 3.5 4.2l3.6 4.1c2.4 2.7 4.9 5.3 7.4 8 2.6 2.5 5.1 5.1 7.8 7.6 2.1 2.3 4.4 4.5 6.8 6.6 1.2 1.1 2.4 2.1 3.5 3.2 1.2 1.1 2.3 2.1 3.4 3.2 3.1 2.3 5.5 4.9 8.6 7.2 7.6 6.8 15.8 13.2 24.1 19.3 8.9 6.9 18.1 13.5 27.3 20 8.8 6.2 17.1 12.7 24.8 19.7l1.7 1.2c.7.6.6.7.2.4 2.1 1.8 4 3.6 5.8 5.3 1.8 1.7 3.5 3.4 5.1 5.1 1.7 1.7 3.3 3.5 4.9 5.3 1.7 1.8 3.3 3.8 5.1 5.9.3.5.7 1.1 1 1.6 1.3 1.6.9.4 2.6 3.1.2.5-.5-.6-1.1-1.1.7 1.1 2.1 2.8 2.2 2.7.7 1 1.5 2.1 2.2 3.1 2.1 3.1 4.1 6.2 5.9 9.4.6 1 1.1 2 1.7 3 .5 1 1.1 2 1.6 3 1 2 2 4.1 2.8 6.1 1.8 4.1 3.3 8.3 4.4 12.4l.8 3.1.7 3.2.5 3.5.2 1.7c0 .3.1.6.1.9v1l.2 3.9v2l-.1 2.1v.5l.3.3.6.5 1.2 1 2.1 1.7 3.3 2.7 2.3 1.9.8.7c.3.2.4.4.8.7 1.5 1 3.3 2.3 5.8 4.1l2.1 1.6 1.1.8.6.4c.3 0 .5-.2.8-.4 2.2-1.1 4.3-2.2 6.5-3.3 4.4-2.2 8.7-4.6 13-6.9l7.3-4c9-5 17.8-10.1 26.6-15.3 35.1-21 69-43.8 101.7-69.3l1.2-1.2c9.6-7.2 18.7-15.4 28-22.9 1.6-1.5 2.7-3 3.3-3 1.2-1.2 4.8-4.7 7.4-6.6.5-.6 1-1.1 1.5-1.7 3.1-2.8 6.3-5.5 9.2-8.7 7.5-6.8 14.7-14.1 21.6-21.6 7-7.5 13.8-15.2 20.5-22.8.4-.6.9-1.3 1.3-1.9 2.3-2.4 6-7.2 6.9-8.8.7-.7.4-.2 1.2-1 .6-1.5 1.9-2.8 3-4 1.4-2.3 3.1-4.8 5-7.4 1.8-2.7 3.8-5.4 5.8-8.4.6-.7.7-.7.5-.2 1-1.4.7-1.9 2.6-4.4.2-.5-.2.1-.4.3.8-1.5 1.9-2.7 2.6-4.4.7-.9.4-.4.2.2.9-1.8 2.7-5.1 4.4-8 1-1.1-.8 1.8-1.5 3.2 1.6-3 3.2-6.1 4.8-9.1 1.5-3.1 3-6.2 4.4-9.3.5-.8 1-1.5 1.4-2.3 0 .7.6-1.5-.7.8 1.1-3 2.4-5.5 3.9-9.6.5-.5 2-4.3 1.2-1.8.8-1.7.5-1.9 2.1-5.3.7-2.6-.7 1.2-1 1.9 1.1-4 2.9-7.4 3.8-11.5.2-.5 0 .7-.2 1.3.4-1 .6-2.3 1.2-3.1-.7.8.6-2 .9-4.1.8-2.3 1.5-4.8 2.1-7.3.6-2.5 1.1-5.1 1.6-7.6.8-5.1 1.6-10 2.4-14.3-.1-.5-.1-1.3 0-2.2.1-.9.1-2 .2-3.1.1-2.2.3-4.7.4-6.5.4.2-.3 5-.2 7.1.2-.9.2-1.9.4-2.8 0 3.4-.2 6.8-.5 10.1-.3-.3-.5 1.9-.9 4.3-.3 2.4-.7 5.1-.8 6 1.7-6.4 3-17.4 2.7-23.7.2-.5.1 1.1.2 1.9.1-.9.1-2 .2-3.2v-3.7c0-2.3-.1-4.3-.4-4.4-.1-2.2.2-1.4.3-2.7-.3-3.2-.4-5.9-.6-8.6-.2-2.7-.5-5.5-1-9.1-.1-2.1-.4-4.3-.6-6.5-.3-2.2-.4-4.3-.8-6.5-.7-4.3-1.5-8.7-2.7-13-.2-1.2-.5-2.7-.8-4.2-.3-1.5-.8-3.1-1.2-4.6-.4-1.5-.9-2.9-1.3-4.2-.4-1.3-.9-2.3-1.2-3.1-.8-2.7-1.7-5.8-3-9.1-.7-1.7-1.3-3.4-2.1-5.2-.8-1.7-1.6-3.5-2.5-5.4-3.5-7.2-7.5-14.6-11.2-20.8.6 1.7-.6-.1-2.1-2.1s-3.3-4.2-3.4-3.8c-.4-.6-.9-1.2-1.4-1.8-.5-.6-1.1-1.2-1.6-1.7-1.1-1.2-2.1-2.3-2.8-3.6-8.5-9-17.5-16.8-26.8-23.9-1.4-.8-3-1.5-2.4-.9-1.7-1-3.2-2-4.6-3.2-1.7-.7-3.1-1.6-4.6-2.4-.9-.1-2.2-.9-3.5-1.2.9.6 2.1 1 3 1.6-.8-.4-1.8-.9-2.7-1.3-1-.4-2-.9-3.1-1.4l-3.3-1.5c-1.1-.5-2.3-1-3.5-1.5-1.2-.5-2.3-1-3.5-1.5-1.2-.5-2.4-.9-3.5-1.4-2.3-1-4.6-1.8-6.7-2.6-.6 0-1.7-.2-3.1-.5-1.4-.3-3-.7-4.8-1.3-7.1-.9-16.1-2.2-25.1-2.8-1-.2-2.1-.5-3.1-.7.4.2-.8.2-2.5.1-1.6-.1-3.7-.1-4.9-.1-.2-.1-.4-.2.1-.2-1 0-2-.1-3-.1h-5.7c-.9 0-1.9 0-2.8.1-1.8.1-3.6.2-5.4.4-.4 0-.9.1-1.3.1-.4.1-.8.1-1.3.2-.8.1-1.6.3-2.4.4-1 .1-2.1.2-3.3.3-1.1.1-2.3.4-3.4.5-2.3.4-4.7.8-7 1.4-4.6 1-8.9 2.5-12 3.8-1.3.4-3 1-4.7 1.7-1.7.7-3.5 1.6-5.3 2.4-.4.2-.9.4-1.3.6-.4.2-.8.5-1.3.7-.8.5-1.6.9-2.4 1.3-.7.4-1.5.8-2.1 1.2-.6.4-1.2.7-1.7 1-6.6 4-12 8.1-16.1 12.2 1.6-1.2 1.8-1.1 2.7-1.5-1.1 1.1-2.3 1.8-3.4 2.8 2.2-1.5 3-2.4 4.3-3.1 2-1.9 6-3.9 6.6-4.7 1-.8 2.2-1 3.3-1.6 1.5-.9 3-1.7 4.5-2.5.7-.4 1.5-.8 2.3-1.2l2.3-1.1c-1.4.8-2.4 1.4-3.5 2-1.1.7-2.3 1.5-4.1 2.7 5.4-3.2 12.3-6.4 19.6-8.9 7.3-2.6 15.1-4.5 22.4-5.8 1.4-.2 2.9-.2 4.2-.2.1-.1-.1-.2-.4-.3 1.6-.1 3.2-.4 4.9-.5 1.1.3 3.3.1 5.5-.2 2.2-.2 4.6-.5 6.1-.7 1.5.2-.9.4-2.4.6 1.5 0 3.8.2 3.6.4-2.7.2-3.2 0-5 .3 1.2.2 2.7-.3 3.8 0 2-.1.8-.2 2.3-.3.7 0 1.5 0 2.2.1-.1.2-2.4.3-2.4.5h-1.6c1.3-.4-3.3-.2-5.3-.1-1-.1-.4-.2-1.5-.3-4.7.3-5.7.9-9.9 1.4-.2-.1.7-.3 1.8-.5l1.8-.3c.6-.1 1.1-.1 1.4-.2-.5 0-1.1 0-1.7.1-.6.1-1.3.2-1.9.2-1.1.2-1.9.3-1.3.4-1.3.1-2.5.2-3.8.3-1.3.2-2.6.5-3.9.7-1.3.3-2.6.5-3.9.9-1.3.4-2.5.7-3.8 1.1 1.5-.2 3.1-.6 4.7-1.1 1.6-.4 3.2-.8 4.8-1.1-1 .5-3 .9-5.3 1.4-2.2.5-4.6 1-6.3 1.2-2 .7-4 1.4-5.9 2-1.9.7-3.8 1.4-5.8 1.9-5.9 2.6-11.5 5.4-16.9 8.6-5.4 3.2-10.5 6.9-15.2 11.1 1.1-.8 2.2-1.6 3.4-2.4 1.1-.8 2.2-1.6 3.4-2.1 1.2-.9 2.4-1.7 3.6-2.5 1.3-.8 2.5-1.4 3.8-2 .8-.6.3-.4.8-.8 2-.7 4-2.1 6-3 1-.3-.2.4-1.3 1.2 1.2-.5 2.5-1.1 3.7-1.7 1.3-.6 2.5-1.3 3.8-1.8 2-.6-.9.7.5.3 1.9-.6 3.3-1.3 4.8-2 1.5-.6 3.1-1.3 5.4-2.1 1.3-.1-3.7 1.9-5.4 2.6.8-.3 1.6-.5 2.4-.6.5-.2-.2-.1-.5 0 1.9-.8 3.1-.9 3.9-1.6.9-.1.4.1 1.5-.1 1.7-.6 3.3-1.1 5-1.5 1.7-.4 3.3-.7 5-1 1.2-.4 1.3-.6.1-.5 1-.4 2.1-.6 3.1-.8 1.1.1 1.4.3 1.9.5-1 .2-2.2.4-3.3.6-1.2.3-2.3.6-3.4.9-1.1.3-2.1.6-2.8.9-.8.3-1.3.6-1.6.8l-4.5 1.3c-1.5.5-3 1.1-4.4 1.6-1.5.5-2.9 1.1-4.4 1.7-1.4.6-2.9 1.1-4.3 1.7.8-.1.1.3-1.1.9-1.2.6-2.8 1.2-3.9 1.9-.4 0 .2-.3 1-.7.8-.4 1.8-.8 2.2-1.1-.6.2-1.2.5-1.8.8-.6.3-1.2.7-1.8 1.1-1.2.8-2.3 1.5-3.5 2.2-1.7.8.9-.9-1.3.4-.2.4-1.8 1.4-3.7 2.7-1.9 1.3-4.1 2.7-5.5 3.8-1.1 1.1-2.4 2.1-3.8 3.3-1.4 1.2-2.9 2.3-4.3 3.8 0 .3.7-.3 1.5-1.1s1.9-1.7 2.4-2.1c-.6.6-1.5 1.4-2.5 2.4l-3.3 3.3-3.7 3.7c-1.2 1.3-2.4 2.4-3.5 3.5-1.3 1.8-4.4 5.3-6.9 8.9-1.3 1.7-2.4 3.5-3.3 4.9-.8 1.4-1.3 2.5-1.3 2.9-2.1 3-2.5 4.6-4.1 7-.2-.1.9-1.8.5-1.7-1.9 3.6-3.6 7.3-4.6 10.2-1 2.9-1.5 5-1.1 5.1 0 0 .2-.3.3-.5.1-.2.2-.4.4-.6.2-.4.5-.9.7-1.3.5-.8.8-1.2.8-.8 1.9-3.6 5.2-9.5 6.4-10 .7-1.9 2.8-4.9 2.8-5.5-.4.5-.7 1.2-1 1.8-.7.6 0-.3.6-1.5.9-.9 1.7-1.9 2.4-3.1.9-1.1.7-.5 0 .8.7-1 1.4-2 1.3-2.2.5-.5 1.2-1.3 1.9-2.2.7-.9 1.5-1.9 2.3-3.1.8-1.1 1.7-2.2 2.5-3.3.9-1.1 1.7-2.1 2.5-3.1 4-3.6 7.6-8.2 11.7-12.2.3-.2.5-.3.8-.5-.7 1-2.1 2.4-3.5 3.9-.7.7-1.4 1.4-2.1 2.2-.6.7-1.2 1.4-1.6 2 .8-.5 1.4-1.3 2.2-1.8 1.4-1.5 2.8-2.9 4.1-4.1 1.3-1.2 2.6-2.3 3.9-3.4 1.3-1 2.6-2.1 4-3.1.7-.5 1.4-1 2.2-1.6.7-.6 1.5-1.1 2.4-1.7.3-.1 0 .1.5-.1-1.3.8-2.7 1.9-4 2.9-1.3 1-2.4 2.1-3 2.7.5-.3 1.1-.7 1.6-1.1.5-.4 1.1-.7 1.6-1-.6.1.5-.7 1.9-1.5-.4.1-.4-.1-.1-.5 1.2-.7 3.2-1.9 4.6-2.9 1.5-1 2.6-1.7 1.9-1.7 1-.7.6.1 2.1-.9.3 0-1.6 1-.8.8.9-.4 1.6-1 2.1-1.4.5-.4.7-.7.4-.6 1.2-.6 1.1-.1 2.2-.5 2.3-1.3.7-.8 2.1-1.6 1.1-.6 1.6-.4.9-.1 1.9-.6 1.4-.9 1.8-1.1.6-.2 2.4-.8 2.7-.7-1 .7-2.1 1-3.1 1.6 1.3-.4 2.3-.9 2.9-1.2.6-.4.8-.6.7-.7 1.6-.6 3.1-1.1 4.5-1.7 1.4-.5 2.7-1 3.8-1.5 2.4-.5-.3.4.9.3-.9.3-1.9.6-2.8.9l-1.4.4-1.4.5c1.8-.3 1.7-.1 0 .8.6-.1 1.1-.3 1.6-.5.4-.2.7-.3.7-.4.3.2 2.2-.6 2.7-.3 2.5-1.1 4.9-1.5 8.5-2.3.7 0-2.5.9-3.3.7-.5.1-.3.1 0 .1l-.9.3c.9-.1 1.9-.3 2.8-.5.5-.1.9-.3 1.4-.4.5-.1 1-.2 1.4-.3.9.1-.1.5.8.6 1-.4 1.1-.3 2.9-.8 1.7-.1 1.2.1 2.3.2 1.2-.2 1-.3 1.5-.4 1.3 0 .1.2 1.8.2.7-.1 1.5-.2 2.2-.3.7-.1 1.5-.1 2.2-.1 1.4 0 2.9-.1 4.3-.1 1.2.2-1.2.2-2.6.5.7.1 1.4 0 2.2-.1.4 0 .7-.1 1.1-.1.4 0 .7.1 1.1.1 0-.1 1.1-.2.6-.3 7.2.3 14.8.3 21.9 1.5.5 0-.4-.2-.8-.4 1.2 0 2.5 0 3.6.2.8.6 3.2 1 5.9 1.3 1.4.2 2.8.4 4.1.6 1.3.2 2.6.4 3.6.8-.8.2-2.5 0-4.4-.3-1-.2-2-.4-3.1-.6-1.1-.1-2.2-.3-3.2-.4 1 .3 2.2.4 3.2.6 1 .2 1.8.4 2 .7l3.1.3c1.1.4.8.4 1.2.6-1.3-.3-2.7-.3-3.9-.8.6.4-1.3-.1-1.7.1 1 .5 2.2.6 3.4.7 1.2.1 2.4.2 3.3.8 2.3.3 4.7.5 6.8.8 1.8.8.7.6-.3.4 1.3.8 3 1.1 4.5 1.6-.2-.3.3-.2 2.2.3-.9-.4-1.9-.6-2.7-1.1 1.6.4 3.2 1 4.6 1.7.7.2 1.5.3 2.2.6l2.2.7c.5.6-1-.1 2 1.2 2 1-1.2-.2.5.8 1-.2 3.3 1.1 6.4 2.1 1.2.7 2.5 1.5 3.7 2.2.6.4 1.2.7 1.9 1.1l1.8 1.2c1.2.4 2.4.9 3.6 1.6 1.2.7 2.6 1.5 4.1 2.4 1.7 1.4-1.6-.7-1.2-.3.9.6 1.9 1.2 2.8 1.8.9.6 1.8 1.2 2.7 1.7.9.5 1.7.9 2.4 1.4.7.4 1.3.8 1.8 1-1.6-1.6-3-2.4-4.1-3-1.2-.6-2.2-1.2-3.4-2-.6-.6-.6-.6-.1-.5-.9-.8-2.8-1.6-1.9-.9-.7-.7-1.8-1.4-3-2.1-1.2-.7-2.6-1.4-4.1-2.2-.4-.2-.7-.4-1.1-.6l-1.1-.5c-.7-.4-1.5-.7-2.2-1.1s-1.4-.7-2-1.1c-.7-.4-1.3-.7-1.9-1.1 1.8.4 4.2 1.6 6.9 2.9 1.3.7 2.6 1.5 3.8 2.2 1.2.8 2.4 1.5 3.4 2.2 3.2 1.1 8.8 5.3 13.4 9.5-1.6-.9-2.6-1.4-3.2-1.4 1.2.7 2.1 1.6 3.3 2.4 2.5 3.4 4.7 3.9 6.9 7.4 1.7 1.6 2.2 2.1 2.7 2.7.5.6 1 1.1 2.4 2.7-.7-1.1.4.1 0-.5.5.5.9 1 1.3 1.5s.8 1 1.3 1.5c1.1 1.9-.6-.3-1.5-1.5 0 .5 3.6 4.9 3.8 4.7.6.8 1.1 1.6 1.7 2.4.5.8 1 1.7 1.4 2.5.4.6.8 1.2 1.2 1.7l1.2 1.8c.8 1.2 1.6 2.4 2.2 3.6.5 1.7-1.3-.8-2.3-2 1.8 3 2.9 4.3 5 8.7.5 1.7 0 .8.9 2.7.9 1.5-1.1-2.8-.2-1.4-.5-1.4-1.2-2.7-1.9-4 0-.7.2-.3-1-2.7-.1-.5.4.4.7.9.7 1.2.8 2.4 1.4 3.6.1 0 .7.9.5.4.8 1.5 1.3 3.1 1.9 4.6.1.7-.1.3-.6-.9-.4-.9-.1-.4-.4-1.4-.3-.2-.8-.8-.4.5.9 1.5 1.7 3 2.5 4.6.7 1.6 1.4 3.1 2 4.7l1 2.4.8 2.4c.6 1.6 1.1 3.2 1.8 4.8.1.7.2 1.5 0 1 .2.3.7 1.7 1.2 3.4.6 1.7 1.2 3.8 1.5 5.5-.1.2-.5-1-.9-2.3-.4-1.2-.8-2.5-.9-2.3-.1-1.4-.5-2.6-.2-.5.4 1.4.9 2.7 1.2 4l.9 3.9c.3 1.3.5 2.5.8 3.7.2 1.2.4 2.3.5 3.4-.2 1.6-1.1-5.3-1.6-5.2.4 1.9.3 2.6.8 3.5.2 1.7.5 3.6.8 5.8.4 2.2.6 4.5 1 6.9.2 1.2.4 2.4.5 3.5.1 1.2.3 2.3.4 3.4.2 2.2.5 4.3.6 6.1-.1 1.5-.5-4.1-.6-1.2.5 1 .5 3.6.7 5.9 0-1.5.1-3 0-4.6.1-.3.1 0 .2-.4.3 3.2-.1 6.1.4 9.4-.1.9-.2.4-.3 1.4.2 2.5 0 4.7 0 7.1-.2.8-.3.8-.3.4-.2 1.1 0 2.4-.4 3.5 0 1.1.1.6.2.1-.1 1.2-.2 2.3-.3 3.3-.1 1.1-.3 2.1-.4 3.1-.1 1-.3 2-.4 3-.1 1-.2 1.9-.4 2.9-.3 1.9-.7 3.8-1 5.8-.4 2-.9 4.1-1.4 6.3-.3.7-.3.1-.1-1.2-.4 1.5-.6 3-1.1 4.5-.5 2.4.6-.9.1 1.3-.9 2.1-1.4 4.5-2 6.9-.6 1.3-.3 0-1 1.7-.2.9.4-.2.2.8-1.2 2.5-.7 2.3-2 5.9-.6 1.3-.3 0-1 1.6-.1.4 0 .5.4-.3-.2.8-.6 1.8-1 2.8-.4 1-.9 2.1-1.4 3-1 1.9-1.8 3.4-2 3.2-1.7 4.6 1.8-3.3 1-.4-.7 1.6-.6 1-1.7 3-.8 2.3-2.2 4.8-2.3 6-1 2-2.2 4.3-2.8 4.8-.3.9-.6 1.7-1 2.5 1.1-1.5.1-.8 1.2-2.2-.2 1.6-4.2 8-6.3 12.2.2-.8-.2-.5 1-2.7-2.1 2.9-1.8 3.9-3.7 7.1-1.5 1.7-2.7 4-3.9 6.2-1.8 2.2-3.4 4.7-5 7.3-.6.4 1.5-2.3 1.9-3.3-.7.7.6-1.5 0-.9-1.4 2.6-3.6 6.1-4.9 8.5-.6.6-1.3 1.7-2.5 3.3-.9.6 3.6-5.1.9-2.1.8-1.5 1.9-2.5 2.7-4-1.1 1-3.3 4.9-3.5 4.5-.4.8-.9 1.5-1.5 2.4-.6.8-1.3 1.8-2.1 3-.3-.5-1.8 2.4-3.7 4.3-1.8 2.8-3.8 5.1-5.7 7.8.1.3 1.9-1.6 2.8-3 0 .3-.7 1.3-1.6 2.4-.9 1.1-2 2.3-2.7 3-.4.2.3-1 .8-1.6-.4.1-1.4 1.3-1.6 1.1.2.6-1.9 2.5-3.5 4.9 1-.6 1.6-1.9 2.5-2.6-1.1 1.4-2.2 2.9-3.5 4-.4.3.6-.7 1-1.4-.6.5-1.5 1.6-1.1 1-1.4 1.3-.2.9-1.7 2 .5-.2 1.3-.8.3.6-1.7 1.9-.2-.1-1.6 1.2-.9 1.2-.4.9-.1.8-.6.7-1.2 1.2-1.7 2-2 1.8.8-1.6-.7-.4-.3.6-.8 1.4-.5 1.3-1.1 1.6-2.5 2.3-3.5 4-1.4 1.3-1.1.7-2 1.5-1.5 1.9-3.1 3.4-4.7 5-.7 1.3-3.5 4-5.5 5.9-1.1.9 1.8-2.2-.2-.4-1.4 2-3.5 3.7-5.9 6.1-1.5 1.6.8-.4-.2.8-2.2 2.2-.6.1-2.5 1.7-1 1-1.4 1.4-1.4 1.7-4.1 2.9-7.6 7.6-11.7 10.7-1.2 1.6-2.1 2.3-4.5 4.8-.7.6-1.3.8-2.9 2.2-.6.1 2.3-2.2 3.1-3.2-2.5 2-4.3 3.8-5.9 5.5-2.1 1.6-1.2.7-2.6 1.5-1.6 1.4-2.6 2.1-3.2 3-.6.4-1.1.7-1.7 1.1.4-.1-.4.7-1.6 1.7-1.2 1-2.8 2.2-3.7 2.7-1.1 1.5-2.3 2.2-4.5 3.8-1.6 1.5.2-.1.9-.4-.9.9-1.9 1.5-2.9 2.4-1.7 1-.6.1-.1-.5-1.8 1.4-3.6 2.8-5.6 3.8.4-.4.8-.7 1.2-1-.4 0-4.2 3.1-5.9 4.4 4.5-3.2 3.9-2.2 8.2-5.5-3.7 3.6-4.7 3.2-7.6 5.6.2.2 3.5-2 3.2-1.4-1.2.7-4.1 2.9-5.2 3.4-1.1 1.1-1 1.4-1.9 2.4.3-.8-1.8.8-3.6 1.9-.9.5 1.7-1.7-.1-.5-.7.7-1.1 1-.7 1.2-1.1.8-2.8 1.8-1.7 1.4-1.3.9-2.6 1.7-3.9 2.5-.1-.1 3.9-2.9 2.9-2.7-2.2 1.9-12.3 9.9-10.7 7.9-1.3.9-2.5 2.1-3.9 2.8-1.6 1.9-6.4 4.7-9.4 7.5-.9.2-3.5 2.2-2.7 1.3-1.5.9-1 1.1-3 2.5-3.4 2.3-6.8 4.3-10.1 7-.5-.1-3.4 1.9-3.6 2.3-1.4.5-2.7 1.6-4.1 2.3.5-.1 1.2-.5 1.9-.6-1.7 1.2-3.8 2.2-4.6 2.5-2.4 1.5-1.1 1.1-4.5 2.8-.2.2.6-.1-.4.6 1.9-1.3 3.9-2.5 5.9-3.5l-9.9 6.3c-.3.1 0-.1-.5.1 1.5-1.1 4.4-2.6 4.5-3.1-2.4 1.3-4.3 3.1-7.7 4.7-.6.5-1.2.9-1.8 1.3-.3.3-.3.4.5.1-1.9 1.4-3.9 2.4-5.9 3.8-1.7.9-.6.1-1.9.7-1.7 1.2 1.1-.3-1.3 1.2-1.8.9 1-.9-1.4.5-1.2.9.3.1-.4.6-7.3 3.5-15.7 9.3-21.6 12.3-.8.3 1.2-1 .9-.9-2.6 1.4-5.2 3.4-7.9 4.4-.3.3-.3.4.5.1-.9.8-1.8 1.1-2.8 1.8-1.2.6-.2-.1.4-.6-1.4.6-2.8 1.6-4.2 2.2-.5.3.5-.1 1-.2-.9.7-1.9 1-2.8 1.7-.2 0 .6-.5-.5-.1-.6.4-1.2.9-1.8 1.3-1.3.6-.2-.2-1.9.6l-3.4 1.9-1.4.8-.6.3c-.8.4-1.5.8-2.3 1.2h.4c-.4.2-1 .8-1.4.8-.4.1 0-.2.3-.5-.4.1-1.1.5-1.7.9-.6.4-1.3.8-1.6 1 0-.1 0-.1-.1-.1h-.2v-.1c.1-.3.1-.5 0-.8-.3 1.3-.2.5-.3.1 0 .4 0 .8-.1 1.2 0 .1 0 .2-.1.3v.1h.2l.4-.1c.5-.2 1.1-.4 2.1-1 .2-.3-.1 0-.3 0 .5-.6.6-.1 1.1-.7.4.1.5 0 1.3-.1-1.1.4-2.3 1.1-3.6 1.8-.3.2-.6.3-.9.5-.1.1-.3.1-.4.2h-.1v-.3l.3-1.8c0-.1-.1.1-.2 0-.1-.7.2-.1.3-.9-.2-.3-.3-1-.3-1.6v-1.9c-.2-.1-.3-.4-.4-.7-.1-.4-.2-1-.2-1.5.3.4.7 1.1.8.4.2.7.2 1.6.4 1.5-.1-.7-.1-.7.1-1.1-.3-.3-.4-.9-.6-1.1-.5-2-.6-3.9-1.4-5.8 0-2.3-1.8-7.4-3.3-11.3.3-.1-.4-2.1-1.8-4.9-.1-.4.1-.4.6.6-.6-1.8-1.5-3.6-2.3-5.4-.9-1.8-1.8-3.5-2.6-5.2-.6-.9.4 1.4-.4 0-.7-1-.7-2.1-1.6-3.1-.4-.9-.3-1 .1-.5-.8-1.6-.3.1-1.6-2.5-.6-1.3-.7-1.8-.2-1-.8-1.2-1.8-3-2.7-4.6-1-1.5-1.8-2.9-2.3-3.3-.7-1.4.2-.2-.9-2-.4.1-1.8-2.4-1.7-2.3-2.3-3.3-3.7-4.1-5.9-7.8-.8-.5-3.6-4.2-5.3-6.1 0-.2.7.5 0-.5-1.5-1.1-3-3.4-5.3-5.4-.8-.5 1.6 2.3 2.4 3 .6.8-2-1.8-2.5-2.4-1-.7 1.6 1.9 2.1 2.6.3.5-.8-.6-1.4-1.2-.3-.3-.7-1-1.4-1.7-.6-.7-1.4-1.6-2.4-2.4-.9-1.1-1.7-2.2-.7-1.4-.6-.8-1.3-1.5-2.1-2.3-.7-.7-1.5-1.4-2.1-2.2-.5-.3-.3.3-2-1.4 1.3.6 4.7 3.4 7.8 6.4-1.3-1.4-2.4-2.8-3.6-4.2-.7-.5-1.1-.6-2.2-1.9-.5-.3-.1.2-.7-.3-1.9-1.7-.9-1.1-2.5-2.9-.1.6-7.5-6.1-7.9-7.1-.3.2-1.8-1.5-3.3-2.4 1.2 1.3 2.9 2.3 4.1 3.7-.2.1-3.7-3.1-5.1-4.3-.3-.1-.8-.4-2.1-1.3-1.1-.8-.8-1 .2-.1-1.4-1.3-1.9-1.1-.8-.1 1.1.8 1.9 1.7 3.1 2.4.3.4.2.5.5.9-2.2-1.6-3.7-3.5-6-5-.3-.5 3.6 2 .7-.4.2.6-.8-.4-2.5-1.6.1-.4 1.6 1.1-1.4-1.6-.4 0-.6-.1-2.6-1.5-.3-.8-3.5-2.4-5.1-4.1 2.7 2 5.2 3.6 7.7 5.6 1.2.9 2.5 1.9 3.8 2.9.6.5 1.3 1 2 1.6.7.6 1.3 1.2 2 1.8-1.8-2 4.1 3.2 3.6 2.2-.6-.7-1.4-1.2-1.9-1.9-.6-.2-1.7-1.1-2.7-2.1-1-1-2-1.9-2.3-2.3 1 1.2-2.3-1.4-1.1 0-1.1-.9-2.5-1.8-3.5-2.8-.7-.8 3.5 2.8.7.2 1.1.5 1.6 1.5 2.7 2-.7-.7-.2-.4-1-1.2-2.9-1.8-3.4-2.5-3.8-3.2-.5.3-5.9-4.2-8.8-6.1-1.1-.5 0 .2 1 1.2-.8-.5-1.7-1.1-2.6-1.7-.9-.6-1.8-1.3-2.7-1.9-1.7-1.3-3.3-2.4-4.2-2.8-1.6-1.4.5 0 0-.6 2.3 1.7 4.7 3.3 6.9 5 .9.5 1.1.4.5-.3-.7-.3-1.2-.8-1.7-1.2-.3-.1-.5-.2-.2.1-2.1-2-8.9-6.4-10.6-7.3 1.6.4-2.8-2.5-3.6-3.6-.8-.5-1.5-1-2.2-1.6-1.1-.4 1.9 1.5 2.3 2 .5.7-2.1-1-4.6-2.4-1.7-1.7 2.1 1.1 2.3.9-1.9-1.8-1.7-1.2-4-2.8.6.6 0 .4 0 .6-1.1-.7-1.8-1.6-3-2.2 1.6 1.5 3.9 2.6 5.3 4.3 2.3 1.5 4.7 2.9 6.8 4.5.6.7-2-1.4-2.7-1.8-1-.5 2 1.8 1.7 1.3-.4 1.2-12.3-8.9-19.1-13.8.5.5 1.1 1.1.6.8.8.9 2.1 1.4 2.9 2.3.1.3-3.4-2.1-4.3-3.2.6.9-3.3-1.7-4.5-3.1-.4-.4 2.7 1.8 3.4 2.6-.3-.7 1.2.5 1.9.6-1.7-1.5-1.1-1.1-3-2.8 3.1 2.3 4.6 3.8 8.7 6.3-1.5-1.6.4-.1-2-2.2-.1.2 1.3 1.5-1.4-.3-2.8-2.2-5.4-4.4-8.2-6.6.9.9 1.2 1.3.5.9l3.6 3c-.2 0-1.9-1.2-2.8-1.8-.8-.7-.3-.5.2-.1-2.2-2-.9-.3-3.5-2.5 0-.2 1.2.5.9 0-1.6-1-3.8-2.7-5.8-4.5-2.1-1.7-4.2-3.5-5.9-4.7-.4-.6.7.2-.8-1.2-1.6-1.2-2.9-2.5-4.6-3.7.9 1 1.2 1.4 1.2 1.6-2-1.6-3.7-3.2-5.7-4.8-.7-.9 1.9.8 3.5 2.6-.7-.9.9.3.2-.6-1-.6-1.9-1.3-3-2.2-1.1-.9-2.3-2.1-4.1-3.5.6 1 1.9 1.6 2.6 2.5-.3.1-2.3-2.1-3.7-3.1-.6-.7-.1-.4-.8-1.2-1.4-.5-4.4-4.2-6.6-6.1-.3-.6.5 0 1.4.9.9.8 2 1.8 2.2 1.8-.3-.4-.8-.7-1.2-1.1-1.5-1.7 1.2.8-.4-.9-1.5-1.2-3.2-3.3-2.9-2.5-1.5-1.1-2.3-2.5-3.6-3.7-.1-.4.7.2 1.7 1.4.1-.5-4.9-4.7-4.7-5.4-.8-.7-1.7-1.4-2.5-2.2.8 1 .5.8.7 1.3-1.5-1.4-1.3-1.6-1.8-2.4-1.3-1.1-2.4-2.2-3.5-3.7s-2.3-3.2-4-5.4c-1.1-1.1-2.6-3-4.2-5.1-1.6-2.1-3.1-4.4-4.7-6.2-.3 0 1.2 1.8 1.9 2.9-.4-.2-1.3-1.4-2.3-2.7-1-1.3-2-2.9-2.7-3.9-.2-.8 1.8 2.6 1.8 2-.8-1.4-1.4-2.4-1.3-2.6-.4-.5-1-1.2-1.7-1.9-.6-.7-1.3-1.5-1.9-2.2-1.3-1.9-.6-1.6-1.4-3.1-.7-1-2.9-4.3-2.3-3.9-2.4-3.3-4-6.7-5.8-10.2-.8-2.1 1.2 1.6.4-.5-1.4-2.6 0 .8-1.2-1.3-1.2-2-.7-2.3-1.2-3.7-.7-1.2-1-2.4-1.6-3.7.3.3.3-.1-.2-1.9-.1-.1-.5-.5-.8-1.4-.6-1.1.6 1.4.5 1.8-.8-1.2-1.1-2.4-1.5-3.7-.5-1 .4 1.8.7 2.3-.1.2-.4-.3-.7-.5-.7-1.8-.5-1.9-1.2-2.8-.5-2.1.4.5.6.5-.5-2-.8-1.7-1.2-2.3-1-2.2-1.5-4.4-2.3-6.6.2-.1.8 1.4 1.1 1.5-.6-2.1-.8-4.1-1.6-6.6-.1-.9-.1-1.5-.2-2.4-.1-.9-.5-2.1-.9-4.2.1 1.3.6 2.9.3 2.8-.6-1.5-.8-2.9-1.1-4.4-.3-1-.1.7-.6-1 .4 1.9.9 5.4 1.3 5.8-.1.3-.1.8-.6-.5-.5-1.7.1-1.1-.8-3.4-.3-2.2.5 1.2.2-.9-.3.4-.9-2.3-1.1-4.4-.4-1.3-.2.6.1 1.9-.3-.8-.4-1.6-.7-2.5.1-.5-.3-3.4 0-2.4-.1-.9-1.1-4.3-.5-3.4-.1-1.6-.9-2.6-1-5 0-.5.3.9.5 1.6-.1-1.2-.2-3-.4-4.5-.1-1.6-.2-2.9-.4-3.4-.1-.7-.2-4.2.1-1.9-.2-2.2-.3-4.7-.6-7-.1-1.1-.3-2.1-.4-3-.1-.9-.3-1.6-.4-2 0-1.2.1-2.4 0-3.6.3-2 .4 2 .6-.8.2 2.5 0 2.5-.1 4.1.1 2.5.3 3 .6 1.3 0-.5-.1.2-.2.4-.1-1.6-.2-3.2.1-4.6.2-1.1 0 1.6.2 2.1.3-1.3-.1-2.8.2-4-.3-.6-.3-2.2-.1-4.2.2-1.9.5-4.2.8-5.9-.1-1.7-.4-3.3-.7.2.4-.7.1 1.3-.1 3.1-.1.5-.1-.9 0-1.6-.3.7-.5 6.1-.6 8.6v-3.3c.1-1.2.1-2.4.2-3.6.1-1.2.1-2.5.2-3.8 0-.7.1-1.3.1-2 .1-.7.1-1.3.2-2 .3-2.7.5-5.4.9-8.1.4-2.6.8-5.2 1.1-7.7.2-.5.1.6.1 1.1.3-1.3.6-2.6.7-4 .5-.6.5-2 1-3.8.4-1.4-.4 3.4.3.7 0-2 .5-2.9 1.5-6.4.1-1.6.3-3.6 1.5-5.8.3-1.8.9-3.2 1.2-5 .6-1.1 1.3-2.5 1.9-4.1.3-.8.7-1.7 1-2.6.3-.9.8-1.8 1.2-2.7 1.6-3.8 3.5-8 5.8-11.7-.3 0 .6-2.1 1.4-2.6.9-1.8.5-1.5.4-1.6.3-.6.6-1.2 1-1.7 0 .4.4 0-.4 1.7 1.6-2.2 0-1 2-3.4.1-1 .6-1.6 2.2-3.9.7-.7 0 .4-.6 1.6.6-1 1.4-2.1 2.1-3.2.8-1.1 1.6-2.3 2.4-3.4.9-1.1 1.7-2.2 2.4-3.2.4-.5.7-1 1-1.4.3-.4.6-.9.8-1.3 1.5-1.8 1.6-1.6 2.7-2.7 1-.8-.6 1.3.6.2 1.1-1.4.8-1.3.4-1.2 1.7-1.6 1.2-1.3 2.7-2.9 1.2-.7-.8 1.9-2.5 3.4.8-.6.5-.2.1.1 1.3-1 2.8-2.2 4.4-3.6.8-.7 1.7-1.5 2.6-2.3.9-.8 1.7-1.8 2.7-2.7 1.4-.9-1.6 1.7.2.5.6-.7 1.9-1.7 3.3-2.7.4-.3.7-.5 1.1-.8.4-.2.8-.5 1.2-.7.8-.5 1.5-1 2.1-1.4.7-.6.3-.5 1.1-1.1.2 0-.4.6.5.1 1.5-1 .5-.4 1.6-1.3.4-.1-.5.5.1.3 1.8-.8 3.6-2.1 3.2-2.3.4-.2.8-.4 1.3-.6.4-.1-.4.4-.8.7 1-.5 2.1-1.1 3.3-1.7l3.6-1.8c2.4-1.1 4.7-2.2 6-3 4.1-1.3 3-1.4 5.4-2 2.3-1.3 3.7-1.9 6.9-3.1-1.1.2-2.2.6-3.3.8 1.4-.7 2.8-.8 4.2-1.4.5-.1-.5.3-.9.6 2.9-1 5.9-1.4 8.9-2.2.5 0-.5.3-1 .5 1.4-.4 2.8-.6 4.3-1.1.8-.5 3.6-1.1 6.8-1.5 3.2-.5 6.8-.8 9.3-1.3l-4.3.5-2.1.2-2.1.3-4.2.7c-1.4.3-2.8.5-4.2.8 1-.3 1.9-.5 2.9-.7l1.4-.3c.5-.1 1-.1 1.5-.2.4-.2-.2-.1-1.1 0-.8.1-1.9.4-2.3.4 1-.3 2-.7 3-1 .9-.1.4.1 1.4.1 2.1-.4 3.1-.8 4.2-1.1 1.1-.3 2.3-.5 4.8-.7.4.2-3.3.7-4.5 1 .1.1 1.3.1.4.4.5-.1 1.4-.4 2.7-.8 1.3-.3 2.9-.7 4.9-.7.7.1.2.2-1.1.5 1 0 2-.2 3.1-.4s2.4-.5 3.9-.5c2 .1-1.5.4.8.5.5-.1.3-.1 0-.1-.1-.2 2.7-.2 2.1-.5.4 0 1.5 0 2.3-.1.9 0 1.5-.1 1.2-.2 1.1 0 2.4-.1 3.5 0 0 .2-3.5.5-2.8.7 1.3-.1 3.1-.2 4.6-.4 1.3.2.1.3 1.8.4 1.5 0 2.9.1 4.3.1 1.4.1 2.8.3 4.3.4.9.2-1.8-.1-2.5.1 1.8.3 3 .2 4.1.2 1.2-.1 2.3 0 4 .6 1 .1 2.1-.1 3 .2 1.2 0-1.4-.2-1.7-.5h1.5c1.4.3 2.7.7 4.1.9 1.4.3 2.8.5 4.1 1.1-.1.2-3.9-.5-5.1-1.1-.7-.1-1.3-.1-2-.2-.6-.1-1.3-.1-1.9-.2 1.6.1 4.9 1.4 7.4 1.5 1.7.6-.7.2 1 .8 1 0 2.8.5 4.9 1 1 .3 2.1.7 3.3 1.1 1.1.4 2.2.7 3.2 1.2.9.6-1.4-.5-1.9-.5 1.9.7.9.6 2.4 1.3 1.2.4 2.4.9 3.5 1.3 1.1.5 2.3 1.1 3.5 1.5 1.4.9 2.2 1.3 3.2 1.7.5.2 1.1.4 1.8.7.4.2.8.3 1.3.5s1 .5 1.6.8l-1.3-.8-1.4-.7-2.7-1.5c-.9-.4-.6-.1-.2.2-1.2-.6-2.3-1-3.4-1.7-.9-.6 1.4.5 1.8.7-.4-.4-4.2-2.9-6.6-3.4-1.1-.9-6.1-2.7-9.2-3.4-1-.5-.3-.4-2.2-.7-2.2-.9-4.6-1.4-6.9-2-1.2-.3-2.4-.5-3.6-.7-1.2-.2-2.5-.3-3.7-.5 0-.4-5.2-.6-3.6-.8-.4 0-1 0-1.8-.1-.4 0-.8-.1-1.2-.1h-1.4c.8.1 1.6.1 2.3.3-1-.1-2-.1-2.9 0-.3-.1-.3-.2.6-.3-1.2-.2-2.6-.1-3.8-.4-1 0-.4.1-1.1.2-1-.2-2.2-.3-3.5-.1-.8-.1-1.6-.2-2.4-.2-1.4-.1 2.7-.3.1-.4-2.1.4-10.7.8-12.5.7-1.8 0-.6.3-2.1.4-.5.1-1 .1-1.5.2-1.8.1-.5-.2-2.4-.1-.8.2-1.8.4-3 .6-1.1.2-2.4.4-3.6.6-2.6.3-5.3.8-7.6 1.3-.6.2-1.2.4-1.7.6-.6.2-1.1.3-1.7.6 2.4-.4 1.9-.7 4.4-1.1-1.2.5-.9.3.4.4-3.2 1-5.9 1.6-6.7 1.5 1.3-.6 2.5-.4 3.8-1-2.1.6-3.1.4-1.4-.2-1.5.4-3 .8-4.6 1.1-1.5.4-3 .8-4.5 1.3.9-.6.5-.4-1.9.2 1.6-.6 3.2-1 4.7-1.2.9-.4-1.2.1 0-.4-1.7.6-3.5 1-5.2 1.6-1.2.6.6.1 1.9-.1-1.4.4-2.7.9-4 1.4-1.3.5-2.6 1-4 1.6-.3.3.6.1 0 .5-2.7 1.2-.1-.3-2.3.5-.5.1.8-.4 1.4-.8-.7.2-1.6.5-2.5.8-1 .4-2.1.8-3.2 1.3S95 38 94 38.4l-1.5.6c-.5.2-.9.4-1.3.5-1.7 1.2-3.5 2.1-5.1 3.1-1.7 1-3.4 1.9-5 3-.6.2-.1-.3.7-.8.7-.5 1.6-1.2 1.7-1.4-2.7 1.3-3 2.4-3.8 2.2-.7.7-.6.9.2.7-1.4 1.1-2.8 2-4.2 3.1-1.4 1-2.7 2-4.1 3-.6 1.1-3.3 3.2-5.1 4.8-.4.3.3-.5.6-.9.6-.6 1.3-1 1.9-1.4.5-.5.5-.6.3-.5.2-.3.5-.5.7-.8-1.4 1-2.7 2.5-4.1 3.4.8-1 1.7-1.5 2.6-2.3.2-.4-.4.1-1.1.7-.4.3-.7.6-1.1.9l-.8.8c2.1-2.7-2.8 2.5-4.7 4.2.2 0 0 .8-1.4 2.4.7-1.3-1 .7-1.3.4-.3.4-.6.8-1 1.2.8-.4-1.4 2.1-1.6 2.9-.4.5-1.4 1.5-2.4 2.7-1 1.2-2 2.7-2.7 4-1.2 1.3-.3-.2-.3-.4-.4.5-.9 1.1-1.3 1.6s-.7 1.1-1.1 1.5c-.7 1-1.3 1.8-1.8 2.4-.3.6-.6 1.3-.9 1.9l1.2-1.5c.8-1.8 2-3.1 3-4.5-1.1 2.1-2.6 3.8-3.7 5.9-.3-.3-1 .8-1.9 2.4-.9 1.6-2.2 3.7-3.2 5.4.7-1.3 1.3-2.7 2.2-3.9-.1-.2-.6.6-1.2 1.7-.6 1-1.2 2.4-1.5 3-.1.5.1.5-.1 1.3-1.1 2.5-.9 1-1.4 1.9-.2.7-.5 1.3-.9 1.8.3.3-.7 2.5-2 4.6.5-.6.4-.4.2.3-.1.3-.3.7-.5 1.2s-.3 1.1-.4 1.7c-1.3 2.5 1-3.6-.5-.4.1 1.1-.7 2.8-.9 4.2-1.1 2.1.8-2.9.3-2.3-.8 2.3-1.1 2.8-1.3 4.5-.9 2 .4-1.7 0-1.2-.9 2-1.3 3.4-1.6 4.8-.2.7-.3 1.4-.5 2.3-.2.8-.4 1.7-.6 2.8-.4 1.1-.4.4-1 2.2-.3 2.3-1.1 4.3-1.4 6.6-.3.6-.2-.6-.4-.3 0-.7.2-1.4.3-2.1.5-1.6.2.2.3.2.7-3 .7-4.1 1.7-7.6-.6 2.1-1.4 4.1-1.8 6.3-.6 1.6.7-2.7 0-1.2.7-2.2 1.2-4.6 1.9-6.9.1-.5-.3.5-.2-.2.5-1.9.4-.4 1-2.2.2-.9.4-1.7.7-2.5-.3-.3.1-1.5.7-2.9s1.3-3.1 1.6-4.5c.8-1.6.2.7 1-1.6.4-1.5-.6.1-.2-1.5-.7 1.1-.9 2.6-1.6 3.7-.1.5.3-.4.6-.8-.4 1.8-1.1 3.2-1.8 4.8-.3.2.5-1.6.4-2.2.3-1 .7-1.9 1.1-2.9.3-1 .7-1.9 1-2.9.9-1.6.1.7 1.1-1.6.1-.9.6-2.2 1.1-3.7.6-1.5 1.5-3.2 2.4-5 .5-.9.9-1.8 1.4-2.7.5-.9 1-1.8 1.6-2.6.5-.9 1-1.7 1.5-2.5s1-1.5 1.4-2.2c.3-.1-.9 2-.2 1.3l-2.4 3.9-1.2 1.9c-.4.6-.8 1.3-1.1 2-1.4 2.7-2.9 5.4-4 8.2-.2 1 1.1-2 1.2-2.8.9-1.2 1.7-3.2 1-1 .7-1.6 1.4-3.1 2.2-4.7.3-.3-.4 1.5.8-.5.5-1.7.9-2 2.1-4.1 1.1-1.6 0 .6 1-.9.9-1.5 2-3.2 2.9-4.8.5-.8.9-1.6 1.3-2.2.4-.7.8-1.3 1-1.7 0 .1.8-.7.5-.1-.7 1.3-.3-.1-1.2 1.6 1.9-2.2 3.5-4.9 5.6-7 .7-1 1.3-2.1 2-3.1.7-.6.9-.5 2.3-1.7 1.2-1.9-1.1.6-1.7.9 1.1-1.6 2.7-2.3 3.8-4 1.7-1.5-1.1 1.9 1 0 .3-.4-.2 0-.4.2 1.3-1.4 2.7-2.8 4.1-4.1 1.4-1.3 2.9-2.4 4.4-3.6 1.4-1.6-1.1.3-2.5 1.5.7-.7 1.3-1.4 2-2.2.3-.4.7-.7 1-1 .4-.3.7-.6 1.1-.8.8-.3-1.6 1.3-1.1 1.3.9-.4 1.5-1.4 2.4-1.7.8-.9-.3-.2 1.9-2 1-.6 1-.5.1.4 1.1-.7 1.6-1.2 2.1-1.7.4-.5.9-.9 2-1.5.7-.2-2.1 1.9-.3.9 1.5-1.2 1-1 2-1.9.5-.4 1.1-.8 1.7-1.1.1.1-.5.5-1 .9s-.9.8-.6.7c2.1-1.4 1.7-.9 3.9-1.9 1-.5 2-1.2 3-1.7 1-.6 2-1.1 3-1.7 1.9-1.2 3.8-2.1 5.3-2.9-1.2.9.6 0 3.1-1.1 2.6-1 5.9-2.5 7.5-2.9-.1.2-1.2.6-2.5 1.1-1.3.5-2.7 1.1-3.6 1.7.9-.3 1.9-.7 2.7-1.1.4-.2.9-.4 1.3-.6.4-.2.9-.3 1.3-.5 1.6-.7 3.2-1.3 4.5-1.6.5-.3-.5 0-.9.1 1.3-.8 2.5-.9 3.8-1.5 1.8-.2 3.9-.9 5.8-1.4 1.9-.5 3.7-1 4.8-1 2.3-.6 4.1-1 5.8-1.4 1.7-.3 3.3-.6 5.2-1.1-1.8.3-.6 0-1.9.1 2.8-.7 4.6-.9 5.7-.8 1.1 0 1.5.3 1.6.5 1.3-.4.3-.5 1.2-.9 2.2-.2 4.4-.4 6.5-.4.7.1-2.7.4-3.6.6-.2-.1 1.7-.2 3.8-.3 2.1-.1 4.5-.1 5.3-.2 1.2 0 1.1.3-.1.3 0 .3 2-.1 3-.1.5-.1-.4-.2-.9-.2 2.1-.1 4.7.1 7.4.2 1.4.1 2.7.2 4.2.3 1.4.1 2.8.1 4.2.1.8.2 1.5.4 2.3.5 1 0 1.9.3 3 .2 1.9.6 4 1 6.1 1.3 2.1.4 4.1.9 6 1.6 2.2.4 4.3 1 6.3 1.6 2 .8 4 1.6 5.8 2.5-2.6-.7-2.8-.6-4.8-1.2 2.2.8 4.6 1.4 6.6 2.2 1 .4 1.9.7 2.7 1.1.8.3 1.4.7 1.9 1 .2-.5 3.5.8 2.8-.2 1.1.5 2.1 1.2 3.1 1.8 1 .6 2 1.2 3 1.9.1-.3-1.8-1.4-3.6-2.4-.9-.6-1.8-1.1-2.5-1.4-.7-.4-1-.7-.9-.8 1 .3 1.6 1 2.4 1.4.6-.1 3.5 1.8 5.4 2.6-.4 0-.8 0 1.1 1.4.1-.3 1.4.4 3.4 1.4 1.1 1 3.1 2.8 3.5 2.6 1.3 1.1.3.7 2 2 .6.7-.3 0-1.4-.7 1.6 1.3 3.3 2.6 5 3.9 1.1 1.2-1.7-.9-.6.3.7.5 1.7.6 2.9 2 .3.1 1.4.9 0-.6 2.2 1.8 1.8 1.5 2.9 2.1.9.5 1.1 1.5 2 2.1 1.8 1.5-.6-1-1-1.6 1 .9 1.7 1.9 2.8 2.8.6.8-1.8-1.3-.5.2.7.3 2.5 2.5 1.7 1.8 2.5 1.9 5.6 5.8 7.9 9.4.2.1 1.1 1 1.3 1-1.1-1.7-.6-1-1.4-2.5-.9-1-.4-.1 0 .5-2.6-3.2-5-6.4-7.7-9.5 2.6 2.4 4.4 5.2 6.8 7.8-1-1.5-2.2-2.8-3.2-4.3 1.4 1.4 2.4 3 4.1 4.5.5.8-.8-.5.1.9.6.6 1.1 1.3 1.7 1.9.7 1.1-.1.3-.6-.3.5.8 1.3 1.6 1.7 2.4.7.3 2.3 3 2.8 3.1 1.3 2.3-.5.1.5 1.8 1.3 1.6 3.5 5.5 3.5 5.9.9 1.2 1.4 2.2 1.2 2.1 0 .1 0 .2.1.3-.1.2-.1-.1-.3-.1-.1.4.3.6.3 1 .2 0 .3 0 .6-.1 0 .2.3.5.6.3 0 .3-.3 0-.3.3 0 .2.3.2.2.5.2.1.3-.1.4.1-.1.3-.5-.1-.7.1-.2 0 .2-.4-.1-.4-.2.2 0 .6.3.7 0 .2-.2.2-.2.4.3.2.8.6.6.8 0 .1.1 0 .2 0 .1.2.3.3.1.6.3 0 .2.2.5.2-.3-.1.2-.6-.3-.7.2-.3.4-.1.4-.6.5.1.2.4.2.5.4.1.1-.3.3-.4-.2 0-.3-.1-.1-.3-.3 0-.2-.2-.4-.1 0 .2.2.3-.2.4-.2-.1.1-.4-.1-.4.2-.2.4 0 .3-.3-.3.3-.1-.2-.2-.4 0-.1.4-.2.4 0-.1-.1.1-.7-.1-.8.4-.4-.1-.6.3-1-.2-.2-.5-.1-.6-.3.1-.1.2 0 .4 0 .2-.4-.1-.5-.1-.8-.2 0-.2.1-.2.2-.3 0-.2-.4-.5-.2 0 0 .3-.3.1-.3.2-.2.2-.1.4 0v-.3l-.2-.3-.5-.9c-.7-1.2-1.3-2.3-1.8-3.5-1.2-.6-1.7-3.2-3.6-5 .7.3-1.1-1.8-1-2.2 1.1 1.5 2.3 3 3 4.6.7.6 1.6 2 2.5 3.5.5.8.9 1.6 1.3 2.4l.6 1.2v.2c.2-.1.4-.1.6 0-.1 0-.2-.1-.2-.1l-.1-.1V81c-.1-.2-.2-.3-.3-.5-.4-.7-.8-1.5-1.2-2.2-.4-.8-.9-1.5-1.3-2.3-.9-1.6-1.8-3.1-2.8-4.4-1-1.3-2-2.5-3-3.4-1.9-2.6-3.9-5.1-5.8-7.6-.7-.5-.4-.1.4.8l-2.4-2.1c-.7-.8-1.3-1.5-1.9-2.3 1.2 1 2 2.2 3.3 3.3-.8-1.2-1.8-2.3-2.7-3.5-.5-.5-1.1-.9-1.6-1.4-.6-.6-1.1-1.2-1.7-1.8-.6-.8.4 0 1.5.9-2.6-2.7-2-1.2-4.7-4.1-.4-.2-.5-.2.1.5-.9-.6-1.6-1.3-2.3-2 1 .5.1-.6-1.3-1.9-1.4-1.4-3.4-3.1-4.4-4 1.3.8 3.2 2.5 4.9 3.9 1.6 1.4 3 2.7 3.1 2.4 1.1 1 2.2 2.1 3.2 3.2.5.5 1 1.1 1.6 1.6.5.6 1 1.1 1.6 1.7.3 0-.3-.6-1.1-1.5-.8-.8-1.8-1.7-2.2-2.3 1.9 1.6 1.8 1.7 3.2 2.7.3 1.2 2 2.2 2.1 3.2 1.9 1.8 1.4.9 1 .1 1.4 1.4 1 1.6 1.6 2.4.9.8 1.6 1.8 2.6 2.7 1 1.5.1.5.9 1.7 1.7 1.7.8 1 2.1 2.9 1.6 1.9 2.8 3.9 4.3 5.8 1 1.8-.5-.2-.2.5-1.5-2.1-3.8-5.9-4.1-5.4.7 1.1 1.8 2.1 2.6 3.3 0 .1 0 .3.3.9 1.5 1.8 1.8 2.2 2.6 3.8 1.8 2.4.3-.4 2.1 2 .3.4.5.9.9 1.3.1.3.1.2.1.2v.1s-.1 0-.1.1h-.2l-.3-.3c0 .1.1.3.1.4v.2c0 .1.1.1 0 .3.1.1.2 0 .2-.1.3.2-.1.8.6.9.1.7.6 1 .4 1.6.4 0 .2.3.4.5.3-.1.3-.2.6-.1.1-.4.1-.3.2-.6-.3 0-.2.1-.6 0-.2-.2-.1-.5-.5-.6.1-.2.5 0 .7 0 .1-.2-.3-.5 0-.6-.1-.4-.7-.5-.4-1.1.3.1.3.4.5.5 0-.2-.2-.3 0-.5-.3.1-.3 0-.1-.2-.3-.1-.4-.3-.4-.6v-.5l-.4-.6c-.3-.4-.5-.8-.8-1.3-.9-1.8.4.2.9.8-.5-1.2-1.4-2.4-2-3.5.2.8.1.9 1.2 3.2-.1.1-.3-.1-.6-.4-.6-1-1.2-2.1-1.8-3.1-.2-.5.9.9-.2-1-.8-1.1-.8-.8-1.2-1.2-.4-.5-.7-1.2-1.1-1.7-.4-1.1.8.9 1 .8 1 1.2 1.5 2.6 2.6 3.9-4.1-6.8-8.9-13.2-14.1-19.2-5.3-6-11.1-11.4-17.3-16.4-1.2-.4-5.3-3.4-5.8-4.2-1.1-.4 0 .7-1.1.2-2.6-1.4-2-1.7-4.7-3.1-.4-.3.6.1 1.1.4-1.1-.7-2.3-1.2-3.4-1.8-1.2-.6-2.3-1.2-3.4-1.8 3.3.8-5.2-3-8.8-4.8-2-.7 0 .3.7.7-1.9-.8-2.5-1-2.9-1.2-.5-.2-.9-.4-2.7-1.1-.7-.1 1.1.6.3.4-1-.3-1.9-.7-2.8-1.1-.2.1-.8 0-2.2-.2-2.3-.4-1.3-.7-4-1.1-.7-.3-.1-.3 1.2-.1-2.9-.8-4.2-1.1-5.6-1.5-1.4-.4-3.1-.6-7-1.1-.3-.2-.3-.3.7-.2-2.5-.3-4.9-.4-7.3-.7-2.4-.3-4.8-.3-7.3-.3-.2-.1-.4-.2.1-.2h-2.9c-1 .1-2 .2-3 .4-1.6-.1-1.6-.2.1-.4-6.4.2-12.5-.1-18.9 1.3-1.9.1.5-.4-1.4-.3 1.1-.3 2.1-.2 3.2-.5-2.5.4-5.3.8-8.2 1.3-2.9.6-6 1.1-9 1.6-.8.5 4-.7.9.3-2.7.3-4.8.5-7.1 1.3-1.6.8 2.1-.6 3.5-.7-1.9.7-3.7 1.1-5.6 1.6 0-.2.5-.6 1.1-.9-1.3.4-2.5.7-3.6 1.1-1.2.4-2.3.8-3.4 1.2-2.3.8-4.6 1.7-7.5 2.6-.4.1.6-.4 0-.3-.8.2-1.6.5-2.4.7-1.8 1-.8.6-2.9 1.6-.2-.1-.7 0-2 .4l-3.6 1.8c-1.2.6-2.4 1.1-3.5 1.7-1.1.4 1.4-1 1.9-1.1-.9.2-2.4 1-3.7 1.9-1.3.9-2.6 1.8-3.2 2.3-1.2.6-1.3.6-.9.3.2-.2.5-.4.8-.6.3-.2.7-.5 1-.7-.8.4-1.6.9-2.4 1.5-1.3-.4-2.1.1-2.9.6-.8.5-1.6 1-2.3 1.6-.8.5-1.5 1.1-2.3 1.5-1 .6 1.3-1.3 1.7-1.3-.6.1-2.3 1.1-4.4 2.6.7-.5 2.6-1.9.8-.9.9-.7 1.8-1 2.6-1.9-1.5.8-2.9 2-4.4 2.9.6-.2-.4 1-2 1.9-.4.5.7-.5 1.3-.8-.8.7-1.6 1.4-2.5 2.1-.8.7-1.6 1.4-2.3 2.3-2 1.5.8-1.1-1 .2-1.1 1.2-3.1 3-3 3.3-1.6 1.5-3.4 3.1-5 4.6-1.5 1.6-2.9 3.1-3.9 4.2.1.2.5-.1-.8 1.6-1.3 1 .5-1.5-2.3 1.8.4-.7.8-1.2 1.3-1.8.4-.5.9-1 1.4-1.6-.4-.2-3.1 3.8-4.4 5.2-.1.2.5-.3-.2.7-1.1 1.2-1.7 2.3-2.7 3-1.1 1.7-.2.8-1.3 2.5-.9 1.3-2 2.1-3.2 4.8-.9 1.1-.3-.1-1.4 1.5.6-1.2 1.3-2.2 2-3.2-1.2 1.5-2.5 3.3-3.7 5.5-1.2 2.1-2.6 4.4-3.7 6.8-.6 1.2-1.2 2.4-1.8 3.7-.6 1.2-1.1 2.5-1.6 3.7-.5 1.2-1 2.5-1.5 3.6-.5 1.2-.9 2.4-1.4 3.5-.2 0 0-1 .3-2.4-.7 1.8-1.2 3.8-2.1 5.5-.4 1.4-.1 1 .2.8-.8 2.2-1.8 5.3-2.9 8.5-.9 3.2-1.7 6.5-1.9 9.1-.3.7-.2.2-.2-.4.1-.6.3-1.4.2-1.4-.5 1.7-.6 2.7-.8 3.6-.2.9-.4 1.8-.7 3.1 0 .6.2 0 .2.7-.1.9-.4 1.9-.6 2.9-.2 1-.4 2.1-.6 3.1-.4 2.1-.8 3.9-.7 5-.3 1.2-.4.5-.7 2.4-.1 1.6 0 3.4-.5 4.8.1.7.1 1.6 0 2.6s-.2 2.2-.3 3.5c-.2 2.5-.5 5.2-.4 7.4-.1-.5-.3 1.9-.4.9.1 2.7.2 5.5-.3 8l.3 3.3c-.1.1-.2.2-.2 1 .2.6.3 3.5 0 2.1.1.9.1 2 .2 3.3.1 1.3.1 2.7.2 4.2.2-.6.3.8.5 2.8 0 .5-.2-.6-.3-1.1 0 .7.1 1.3.1 2 .1.7.2 1.3.2 2 .2 1.3.3 2.7.4 4-.6-2.2-.3-2.7-.8-3.8.1 1.6.2 3.2.5 4.8 0 .5-.3-1-.5-1.7-.2-2-.1-3.8-.6-5.9.3 2.4-.3 1.2.1 3.6-.2.6-.5-1.5-.7-3.3.1-.9.3.5.5.7 0-2-.3-2.8-.6-3.9-.1-1.8-.4-3.6-.2-5.3.1 4 .6 3.1.7 6 .3 1.1-.1-3.4.4.1.3 2.1-.4-.6-.1 1.5.5 2.9.2.4.3-.9.1.7.2 1.4.1 2.1 0-1.1-.2-3.5-.4-6-.3-2.5-.3-5.3-.2-7.4-.3 1-.1-2.1-.4-2.3.1 2.5.1 5 .4 7.6-.4.5-.6-1.4-.7-3.8-.1-2.4-.2-5.3-.2-6.7.4-3.9.6 0 1-2.3-.4-.3.2-3.5-.1-5.5 0 1.7-.2 6.4-.6 4.6.2-1.4.2-2.1.2-3 0-.9-.2-1.9.1-3.9.3-2.1.3.8.7-1.3l-.1-2.8c-.1.8-.3 1.5-.3 1-.1-5.2.7-10.1 1.1-15.2-.5 1.4-.4 3.2-.7 4.7.1-1.6.2-3.7.5-5.6.3-1.9.6-3.5 1-4-.3 1.4-.4 2.8-.4 4.4.1.7.5-2.5.5-1.4.2-1.7.3-3.3.5-4.7.1-.7.2-1.4.3-2 .2-.6.4-1.2.6-1.7 0-1.4.4-2.5.7-3.7-.1 0 0-1.3-.2-.7.3-.9.5-2.1.8-3.3l.9-3.6c.6-2.4 1.1-4.6 1.7-5.4.7-2.2 1.3-4.5 1.9-6.8.1 0 .1.3.1.7.7-1.8.3-1.5.6-2.7.9-1.9.6-.6.5.4.9-2.2 1.9-5.1 2.5-5.7.1-.8-.9.9-.2-1.5-.8 1.5-.7 1.9-.8 2.3 0 .5-.1 1-1 2.8-.4.5-.3-.4.3-2.4s1.6-3.8 2.5-5.6c.4-.9.9-1.8 1.3-2.7.4-.9.9-1.8 1.3-2.8 1-1.1-.7 1.7-1.1 3.2.8-1.5 1.5-3.2 2.2-4.9-.1.1-.3.1-.7.8.6-1.3 1-1.6.9-2 .4-.6.7-1.3 1.1-2 .4-.7.7-1.4 1.1-2.1.7-1.4 1.4-2.7 2.4-3.8-.1-.6 2.4-4.4 2.9-4.5.5-2 3.6-6.1 5.7-8.6.6-.9.2-.5.6-1.1 1.9-2 3.8-4.6 4-4.1.8-1.1 1.6-2.1 2.3-3.2 2.6-2.5-.5 1.2 1-.2 1.4-2 3.2-3.5 4.9-5 .1-.4 1.7-2.2 2.1-2.8 1.2-.7-1.8 2.2.3.8-.1-.3 1.1-1.6 2.7-3 1.6-1.5 3.7-2.9 5-3.8 2.1-1.8 1.7-2 4.2-3.5 0 .3-1.6 1.7 1-.2.5-.1-.7.9-2.1 2.1.3-.1.6-.4.9-.6.3-.2.6-.3.9-.5 1.4-1.1.3-.6 1.6-1.7 1.1-.9 1.6-1.1 2.2-1.3.6-.2 1.1-.3 2.4-1 .8-.6 1.6-1.1 2.5-1.6.9-.4 1.7-.8 2.6-1.4-1 .3-1.9.7-2.8 1.3L79.3 35c0-.1-1.1.4-2.3.9 2-1.1 1.7-1.3 4.1-2.4 2-1.4-1.2.4.9-1 2.1-.8 6.4-3.3 10-4.8.6-.5-2.9 1.1-3.9 1.7-.7-.2 4-2.4 6.3-3.3 1.5-.4-3.4 1.6-1.9 1.2 2.5-.8 1.9-1.1 4.4-2-1.4.9.5.1 3.1-1 1.3-.6 2.9-1.1 4.3-1.6s2.7-.9 3.5-1c.6-.3 1.8-.8 3.3-1.4.7-.3 1.5-.6 2.2-.9.8-.3 1.5-.5 2.2-.8-.2.3 1.9-.2 4.1-.8 2.2-.6 4.7-1.3 5.3-1.5.8-.1 1.5-.2 1 0 .9-.4 3-.5 5.3-1.2.8.1 1.7-.1 2.9-.3 1.2-.2 2.7-.6 4.6-.9.7.1-.6.4 1.5.3 3.4-.5 5.9-.8 8.5-.9 1.3-.1 2.6-.1 4-.2.7 0 1.4-.1 2.2-.1.8 0 1.6-.1 2.5-.1.7.2-.7.3 1.5.3.3-.5 3.8-.3 5.3.1-1-.4 2.6-.6 5.6-.3.8.3-3.4-.1-2.8.2.8.1 1.8.1 2.6.3.9-.1-.4-.4 1.7-.2.6.2-1.5.1-.7.2 3.3.5 4.5.4 4.4.2 2.7.1-.2.4 2.5.6-.2-.3 2.1-.1 4.5.2.4.2.8.3 1.3.4.5.1 1.2.2 2.2.5.2-.2 2.8.4 4.2.8.1.2-1.1-.2-.7.2 1.1-.3 8.8 2.4 8.1 1.5 1.7.7 4 .9 5.7 1.7 1.3.7-1.8-.4-3.4-.6.9.4 1.8.7 2.7 1 .9.3 1.9.6 2.7 1 .7-.1 2.6.5 4.7 1.4 2 .9 4 2 5 2.3-.3.1-2.7-.9-3.7-1.3-.9-.5-.4-.4.2-.2-2-1.1-1.6-.5-4.1-1.5 3.2 1.4 4 1.8 6.4 3.4 2.1.8 0-.3.8-.1.6.4 1.8 1.1 3.2 1.9 1.5.8 3.2 1.7 4.9 2.8.9.5 1.8 1.1 2.6 1.6.9.5 1.7 1.1 2.4 1.6 1.5 1 2.9 2 3.8 2.7.6.4 3.7 2.5 2.5 1.4 1.2.7 2.2 1.6 2.9 2.3.7.6 1.2 1.1 1.5 1 1.1 1.1-.4.1-.5.2-.7-.5-1.3-1.2-1.9-1.8-1.5-.9.6 1-2.1-1.1 2.1 1.7 2.5 1.9 5.3 3.8 0 .1.1.3.6.8 1.5 1.1-.7-.8 0-.6 1.3 1 2.3 2.2 3.7 3.1-5.6-5.8-12.1-10.9-19-15.2-1.9-1.3 1.4.5-.6-.8-1.7-1.1-1.3-.6-2.5-1.2-.8-.6-.4-.6.4-.2.8.4 2.1 1 3 1.4 3.9 2.4 7.6 5.7 12.5 9.2 1.2 1 2.3 2.2 3.5 3.2-.9-1.2-.6-.8 1.7 1.4 1.5 1.2.3-.1 1.2.6 1.3 1.5 2.1 2.4 3 3.2.4.4.9.8 1.4 1.3.5.5 1 1 1.6 1.7.9 1.2-.1.2 1.1 1.7.1-.3 1.4.9 2.8 2.7.9 1.2-2.1-2-.4.1.6.5 1 1.1 1.4 1.6.1 0 .6.4 1.3 1.2 1.4 1.8 2.4 3.2 3.3 4.5.9 1.3 1.7 2.6 2.6 4.2 1.1.6 1.9 3 3.5 4.8.2.5-.1.1-.5-.5s-1-1.4-1.3-1.6c1.1 1.6 2.2 3.3 3.1 4.9.6.9 1.5 1.8 1.9 2.7 0-.3.1-.3.3 0 .1 0 .2.1.4.1-.1-.1-.1-.2-.1-.3-.4-.7-.7-1.2-1-1.8-.6-1.2-1.3-2.2-2.3-3.6-.8-1.7.9 1.1.2-.5-1.4-1.8-1.7-1.9-1.5-1.2-.8-1-1.4-2.1-2.3-3.1.3-.2-1.8-3-3-4.4-.6-1.2 1.6 1.7 2.2 2-1.1-1.7-1.3-1.7-2.2-2.5-.3-.6-1-1.9-2.9-4.3-.1.1-1.5-1.3-2.6-2.3-.2-.6.5-.1-.8-1.8-1.1-1-1.9-2.1-2.9-3.2.5.4-.2-.7.1-.6-4.1-4.1-8.2-8.1-12.6-11.8-2.9-1.8-5-4.1-8-5.8-.5-.5-1.1-.9-1.7-1.4-.6-.5-1.3-.9-2-1.3-1.4-.8-2.8-1.8-4.3-2.5-1.5-.8-2.9-1.5-4.1-2.2-1.2-.7-2.3-1.3-3.1-1.8-1.2-.3-2-.9-3.2-1.2-1.2-.7-2.5-1.3-3.8-1.9 2.2.7 3.7 1.6 4.8 1.7-1.1-.2 1.1.7 2.8 1.6 1.4.4-.5-.5-1.8-1.1 1.3.4 2.5 1 3.6 1.5 1.2.6 2.2 1.2 3.3 1.8.8.6-2.3-1.1-3-1.5.3.3 1.7 1.1 3.4 2 .8.4 1.7.9 2.5 1.3.8.5 1.5.9 2.1 1.3-.9-.8-2.2-1.3-3.1-2.1 4.3 2.6 6.1 3.4 10 6 1.2 1-3.2-1.9-.9-.1.7.4 1.4.7 2 1.1 3.6 3 8.2 6.4 10.8 8.6-1.3-1-1-.6-.1.3.5.4 1.1 1 1.7 1.6l1.7 1.7c.4.2 1.5 1.1-.1-.5 3.2 2.4 2.9 3.2 5.5 5.4.9 1.2.2.7-.2.6.9 1.1 2.9 2.8 3 2.7.8.8 1.8 2.1 2.6 3.2s1.6 2.1 2 2.2c.6.8 2.6 3.8 2 3.1 1.6 1.6 5.1 6.5 7.4 10.8-1.7-2.4-1.4-2.2-3.1-4.1.9 1.5 1.7 3.1 2.5 4.7.9 1.4-.4-1.5.6.4.4.4.1-.1-.4-.8-.5-.7-1.1-1.6-1.4-1.9.1-.2 1.1 1 2.1 2.6.3.4.5.8.8 1.3l.4.7c.1.2.1.1.1.1v.4c.2.4 1.1.4.9 1l.3.1c0 .2-.2.1-.3.2 0 .3.6.3.5.6-.2.2-.3-.1-.4-.1.5.6 1 1 .8 1.7.1.2.2.4.5.5 0-.2.1-.3.3-.2-.2.4.5.8.4 1.4-.2-.1-.4-.1-.4-.3-.1.2.2.8.3 1.1.4.1-.1-.2.1-.4.3.1.2.4.5.5.1-.1.2-.1.3-.1.1-.2-.1-.2.1-.3l.2.2c-.3.5-.1.5-.2 1-.4-.1 0-.5-.4-.5-.2.2.1.3-.1.5.2-.2.6.2.7.5 0 .1-.2 0-.3 0-.2.3.1.3 0 .6.2 0 .2-.3.3-.3.4.3.3.8.6 1.2.3-.1-.2-.3-.1-.5 0-.1.1-.1.1-.1 0 .3.3.3.5.6.3-.2.1-.4-.2-.4 0-.3.5.1.3-.3 0-.2.3.2.4-.2zM175.3 5.1c-2.2.1-4.2-.5-6.2-.6 2.2-.1 4.2.3 6.2.6zM25.9 74.2c.3-.9 1.1-2.2 1.5-2.9.4-.8.6-1-.3 0 .8-1.5 1.7-2.9 2.6-4.3.9-1.4 1.8-2.7 2.8-4-.8 1.5-1.1 1.7-1.7 3.4-.6.7-1.2 1.4-1.7 2.3-.4.7.4-.2.2.2-.6.9-1.2 1.8-1.7 2.7-.5.9-1.1 1.8-1.7 2.6zm349.2-56.5c-1.8.5-1.4.6-3.6.7-.1-.2 2.2-.7 3.6-.7zm2.1 6.5c-1.5.2-2.4.4-3.1.6-.8.2-1.5.4-2.8.8-.5-.1-1.1 0-1.6.1-.6.1-1.1.3-1.7.6-1.5 0-1.8.1-2.7-.1-2.5.8-.8.7-.1.8-1.9.3-2.8.4-2.9.2-.1-.2.5-.6 1.6-1 1.6-.1 3.3-.5 5-1 1.7-.5 3.4-.8 5.1-1 1.7 0-1.9.4-1.1.5.8-.2 1.9-.4 2.7-.5.9-.1 1.6-.1 1.6 0zm134.9 214.2c-.6 1.9-1.7 3.4-2.4 5.2.6-2 1.5-3.6 2.4-5.2zM408.8 365.6c-.8.4-3.5 2.7-3 1.9 1.3-.6 4.1-3.3 3-1.9zm-102.6 73.8c1.2-.7 2.4-1.7 3.7-2.1-.9.8-4.2 2.7-3.7 2.1zM169.7 25.8c2.1.2 4.2.3 6.1.8-1.8-.2-6.1-.4-6.1-.8zm-41.1-1.4c.1-.2 2.4-.6 4.4-.9 2-.4 3.9-.4 3.1-.1-2.4 0-5 1-7.5 1zm131.3 59c-.1 0-.2.1-.4 0 .1-.1 0-.2 0-.3.4 0 .6 0 .4.3zM73.6 37.6c1-.7 1.9-1.3 2.7-1.8.8-.5 1.6-.9 2.3-1.4 1.4-.8 2.8-1.7 4.6-2.7-1.7 1-3.2 2.1-4.8 3-.8.5-1.6.9-2.4 1.4l-2.4 1.5zm98.5-24.4c1.6.2 6 .5 5.7.8-1.6-.2-6-.5-5.7-.8zm49.4 16.3c0-.1 2 .6 2.9 1.5.7.6-2.3-1-2.9-1.5zm52.8 51.7c0 .2.1 0 .2.1-.3.3.4.3.1.6-.4 0-.5-.6-.3-.7zM268 66.5c.8 1.2 1.8 2.5 2.4 3.7-1.6-1.9-2.2-3.4-2.4-3.7zm-55.6-51.2c.3-.1 3.6 1.5 5.1 2.4-1.9-.5-3.5-1.5-5.1-2.4zm-15.5-5.6c2 .3 6.5 2 6.3 2.3-1-.4-2.1-.8-3.2-1.2-1.1-.3-2.2-.6-3.1-1.1zm66.4 70c-.1-.2-.2-.3-.3-.5-.1-.1-.1-.2-.2-.3v-.1l-.1-.1-.6-1.1c.2.3.5.7.8 1.1l.2.2c.1.1.1.2.2.3v.5zM149.1.9c.4-.3 4.3-.5 6.3-.3-2.2.3-4.2.4-6.3.3zM218 22.7c1.6.9 3.4 1.6 4.8 2.7-1.4-.7-5.3-2.6-4.8-2.7zm44.3 57.5c-.1.2.3.4-.1.4 0-.1-.3-.4.1-.4zm-.4-.3c.3-.3 0-.2 0-.5.1 0 .1-.2.2-.2.1.3-.1.3.2.4l-.1.2c-.1.1-.1.2-.3.1zm-2-4.8c.5.7 1 1.4 1.5 2.2.2.4.5.7.7 1.1l.3.6.1.1v.1c0 .1-.4-.4-.6-.7-.3-.4-.5-.7-.7-1.1-.5-.9-.9-1.6-1.3-2.3zm-41.5-48.8c-1-.4-2-.9-2.9-1.5 2.3 1 1.3-.2 4.3 1.6.5.7-2.9-1.2-1.4-.1zm32.2 35.9l1.5 1.5c.2.4.5.8.7 1.3-.9-.9-1.5-1.9-2.2-2.8zm8.8 19.8c-.3.3.1.2.1.5-.4.2-.6-.7-.1-.5zm-51.7-60.8c-1.5-.7-3.3-1.5-5-2-1.7-.5-3.1-1-3.9-1.6-.5.2-4.1-.8-5.8-1.5 2.5.7 3.6.8 4.7 1 1.1.2 2.1.4 4.6 1.1 1.6 1.1 1.9.6 2.7 1.4 1.3.5 3.3 1.2 5 1.9 1.7.8 3.1 1.5 3.4 1.8-.4-.2-3.1-1.5-2-.8 1.7.7 3.3 1.5 4.7 2.5-1.4-.6-2.6-1.2-3.8-2-.8-.3-1.9-.8-2.9-1.2-.8-.4-1.6-.7-1.7-.6zm-55-16.4c.1-.2.9-.3 2-.3h3.1c-.2.2-3.4.3-5.1.3zM217.5 27c-.6-.4-1.1-.8-1.7-1.2 1.1.4 2.1.9 2.9 1.4-2.1-1 1 .8-1.2-.2zM255 73.7c1.1 1.2 1.3 2.6 2.5 3.8.7 1.4-.5 0 .8 2.2-1.1-1.4-1.6-2.3-1.9-3.1-.4-.9-.6-1.7-1.4-2.9zm-15.4-24.1c1.3 1 2.6 1.9 3.4 3.2-1.1-1.2-2.6-2-3.4-3.2zm11 16c.4.8-.3.2-1.3-.8s-2.2-2.4-2.8-3.3c.2-.1 1.3.9 2 1.8-.1.1 1.3 1.6 2.1 2.3zM176.1 12c0 .2.5.2 1.2.3.7.1 1.5.1 2.1.1 1.4.2 1.9.4 2 .6 1 .1 1.9.2 2.9.3.9.2 1.8.4 2.8.6.9.2 1.8.4 2.8.6.5.1.9.2 1.4.3.5.1.9.2 1.4.3 1.6.6-.5.4 2.5.9 1.7.7 1.4 1.1-1.4.1.6.1 1.2.2.2-.2-.2.1-.7.1-1.5 0-.7-.1-1.7-.3-2.7-.5-2.1-.4-4.4-.9-6.2-1.2-.8-.2-1.6-.5-2.5-.7-1.1-.2-2.2-.2-3.3-.3-1.1-.1-2.2-.1-3.2-.4.3-.1.8-.1 1.5-.1s1.5 0 2.3.2c1.7.2 3.6.5 4.9.8-.5-.2.3-.1 1.1.1-1.8-.3-3.4-.8-5.2-1.1-.7 0-1.4-.1-2.1-.1H175c-1.4-.1-2.7-.2-4-.5 4.4.2 3.4-.1 5.1-.1zm60.7 35.2c-.8-.6.7 1-.4.2-.5-.8-1.6-1.3-2.2-2.1 1.4.9 1.2.5 2.9 1.7.3.4.6.8 1 1.1-.5-.2-.9-.5-1.3-.9zM92.6 13c-.8.2 2.8-1.7 3.8-1.7-1.3.5-2.5 1.5-3.8 1.7zm25.7-4c1.4-.7 7.2-1.4 4.9-1-1.5.3-3.3.9-4.9 1zm120.3 43.1c.6.4 1.1.9 1.7 1.3.3.4.9 1.1.5.8-.7-.7-1.2-.6-2.2-2.1zm-13.3-12.9c.9.5.7.3-.1-.5.8.4 1.6.8 2.3 1.3 1.2 1 2.2 1.9 3.3 2.9-.9-.7-1.8-1.3-2.7-1.9-1-.6-1.9-1.3-2.8-1.8zm12.4 12.3c-.9-.6-.8-.2-.9-.1-.6-.7-1.6-1.3-2.1-2.1 3.4 2.5-2.5-2.5-1.3-2 .7.7 1.9 1.8 3 2.8 1.1 1 1.9 1.9 1.8 2.1-.1-.2-.3-.5-.5-.7zm-19.3-17.8c.2.4.9.8 1.8 1.3s2 1.1 2.8 1.8c-.8-.2-2.3-1.1-3.5-1.8-1.1-.9-1.9-1.6-1.1-1.3zm-3.4-2.1c-1.6-.9-.2-.6-1.6-1.1-.9-.3.1.4-.8.1-.5-.4-1.1-.7-1.6-1.1.8.2 1.8.6.7 0 1.2.4 2.3.9 3.3 1.5-.6-.2-1.1-.4-.2.2 1.7.8.7.1 2.1.7 1.9 1.2-1.3-.2-1.9-.3zm-11.7-7.3c2.2.7 4.3 1.4 6.1 2.7-.5-.2-1.1-.4-1.6-.7l-1.5-.6c-1-.4-2-.9-3-1.4zm28.8 22.2c-1-.8-1.9-1.6-2.8-2.4-.9-.8-1.9-1.6-2.9-2.3 1.9 1.1 3 1.9 5.3 3.9-.6-.3-.1.3.4.8zm-69.7-34.7c.8-.1 1.5-.1 2.3-.2 1.3.3 2.7.4 4.3.2l1.5.3c-2.8 0-5.5-.2-8.1-.3zm61.5 27.7c.6.5 1.2.9 1.8 1.3.6.5 1.2.9 1.7 1.4-.6-.3-1.6-1.1-2.4-1.7-.8-.5-1.4-1-1.1-1zM91.5 17.6c2.8-1.4 5.6-2.3 8.5-3.4-.5.4-2 .9-3.6 1.6-1.7.6-3.6 1.3-4.9 1.8zM231 47.1c.1.3-.9-.4-1.5-.7-1-.8-2.1-1.6-3.1-2.4-.3-.4.5-.1.9 0-1.1-.6-2.1-1.2-3-1.9-1-.6-1.9-1.3-2.9-1.9-1.3-1.5-3.1-2.4-5.7-4.3.8.3 2.2 1.2 3.8 2.2.8.5 1.6 1.1 2.4 1.6.8.6 1.5 1.1 2.1 1.5-.6-.6-.5-.6-.1-.5 1.2.8 1.9 1.4 2.2 1.7.3.3.1.3-.5-.1 1.9 1.3 7.6 5.6 8.5 7.3-1.8-1.6-1.5-1-3.1-2.5zm-19.4-16.3c.9.1 1.9.4 4.2 1.9-2.9-1.6-1.2-.3-4.2-1.9zm14.6 11.6c-.4-.4-.9-.7-1.3-1.1-.5-.3-.9-.7-1.3-1.1 1.4.7 4.1 3 2.6 2.2zm-71.4-30.5c-.9 0-1.8 0-2.7.2-.9-.1-1.7-.1-2.6-.2-1.9.2-3 .4-4.2.5-1.2.1-2.4.2-4.5.5 1.1-.2-.7-.2 1.2-.5 2.1.1 4.3-.3 6.4-.5-.8-.2-.9-.4 1.3-.7 1.6 0 3.2 0 4.7.1-1.7.3-3.3.2-5 .6 1 .1 5.2-.3 5.4 0zm-1.5-.3c1.9-.3 3.6-.2 5.3 0-1.8.2-3.5 0-5.3 0zM216 35c-1.8-1.1 1.3.4-.6-.7 1.3.5 2.4 1.3 3.4 2-.1.2-1.7-.6-2.8-1.3zM69.6 27.5c1.3-1 2.6-2 3.9-2.6-1.2 1-2.6 1.8-3.9 2.6zm148.5 9.4c-.8-.6-.3-.4-1-1 1.1.5 2.1 1.1 2.9 1.9-.7-.3-1.3-.6-1.9-.9zM179.5 18c-.9-.2-1.4-.4-1.4-.5 1.1.1 2.3.3 3.4.4 1.1.2 2.2.4 3.2.7-.5 0-.9-.1-1.3-.2s-.9-.1-1.3-.2c-.8-.1-1.7-.2-2.6-.2zm31.7 14.4c-1.1-.7-2.3-1.2-3.5-1.8-.6-.3-1.2-.6-1.8-.8-.6-.3-1.2-.5-1.8-.8.6.3 1.2.5 1.9.7.6.3 1.3.5 1.9.8 1.2.5 2.5 1.1 3.6 1.7-.7-.2.2.3-.3.2zm-9.8-5.9c-.7-.2-1.4-.3-2.1-.5-.5-.3-1.5-.8-1.1-.8.9.5 2.2.7 3.2 1.3zm11.5 7.5c-.7-.2 2.6 1.8.5.8-2.1-1.2.2-.2-1.8-1.5.8.3 1.6.6 2.4 1 .4.4 3 1.7 1.9 1.4-1.1-.5-2-1.1-3-1.7zm-77.8-20.7c2.3-.2 2.1-.5 4.8-.7-1.3.4-5.4 1.1-4.8.7zm53.4 9c1.8.4 3.7.8 5.4 1.4-2-.2-3.6-.9-5.4-1.4zM50 42.7c1-1 1.8-2.2 3-2.9.1.1-.4.6-1 1.2s-1.4 1.3-2 1.7zm124.2-24.1c1.8.2 3.7.4 5.5.9-.8 0-2.3-.2-3.4-.5-1.2-.1-2.2-.3-2.1-.4zm-50.8-3.3c-1.2.3-2.5.5-3.7.8-1.2.3-2.4.6-3.6.8 1.1-.4 3.2-1.1 4.9-1.5 1.7-.3 3-.4 2.4-.1zm70.8 12.5c2 .4-.2-.2-.8-.5 1.3.1 2.1.8 3.3 1-.7-.4-1.4-.7-2.1-1-.8-.3-1.5-.5-2.3-.8-.3-.2-1.8-1.1.8-.2-1.1 0 1.8.5 2.1 1 2.1.3 3.7 1.3 5.6 1.8 1.1.8 2 1.2 4.2 2.1.8.2-.8-.6-.2-.4 1.9 1 2.1 1.4 1.7 1.3-.4 0-1.5-.3-2.6-.5-.9-.5-.1-.3-.2-.4-.8-.2-1.4-.7-2.2-1 .7.4 1.1.7 1.1.8-1.8-.5-2.8-1.2-2.4-.7-1-.4-2.2-.7-3.1-1.3.7.1 1.9.6 1.5.3-1.4-.3-2.9-.9-4.4-1.5zm-13-5.3c-.1.2-1.7-.1-3.1-.2-.3-.2-1.2-.4-2.3-.6-1.1-.1-2.4-.2-3.5-.4 2.4-.1-2.1-.2-2.8-.6 2.2.1 4.3.5 6.4.7 4 .3 3.3-.6 7.4.3-3-.3-6.7-.1-2.1.8zM36.8 57.8c-.4.2 1.7-2.6.2-.9-1.8 2.7-.8 1.7-1.5 2.9-.6.7-1.2 1.5-1.8 2.2.4-.9.9-1.9 1.4-2.8.5-1 1-1.9 1.5-2.8 1.5-1.4 2.3-2.3 3.1-3.2.4-.5.8-.9 1.3-1.5l1.9-1.9c-1.5 2-3.4 4.9-6.1 8zm74.1-39.2c.4-.3 1.1-.6 1.9-.8.8-.3 1.8-.5 2.8-.7-.8.3-1.6.5-2.4.8-.8.1-1.6.4-2.3.7zm93.2 13.7c.9.2-1-.7.3-.3 1.1.4 1.5.8 1.4.9 0 0-.6-.2-1.7-.6zm-31.9-11.7c1.4 0 2.8-.1 4.3-.1.6.2 1.3.2 1.9.4.2.2-.8.2-2.1 0-1.3 0-3-.1-4.1-.3zm-65.5-.9c-1.3.3-2.6.8-1.5.2 1-.3 2.1-.8 3.1-.9-.5.3-1 .5-1.6.7zm34.9-2.3c-2.8 0 2.2-.7 3.8-.6-1.3.3-2.5.3-3.8.6zm49.2 9c-.9-.3-2.7-1-1.1-.8 1.1.5 2.2.9 1.1.8zm-87.1-5.2c.3-.1.5-.3 0-.1-.9.4-1.7.7-2.5 1 1.7-.8 3.4-1.5 5.1-2-.9.4-1.8.9-2.6 1.1zm1.4.7c1.7-.4 3.4-1.4 5.1-1.7-.7.3-2.1.8-3.2 1.2-1.1.5-2 .8-1.9.5zm98 12.8c1 .1-1.7-.8-1.3-.5-1-.6-.5-.5-.1-.5 1.9.9 1.7.5 4.3 1.9-.8-.1-1.6-.5-2.9-.9zm-186 56.9c.4-1.6 1.2-2.9 1.8-4.2-.5 1.6-1.1 3-1.8 4.2zm92.8-67.7c1.2-.6 2.3-.9 3.5-1-1.2.5-2.3.8-3.5 1zM67.4 39.7c-2 1.3.3-.9 1.7-1.6-1.2 1.1-.1.3-1.7 1.6zm34.1-13.2c-2.1 1.2-6.7 3-7.2 2.9 2.1-.6 4.2-1.8 6.3-2.7-.9.5 1.3-.6.9-.2zM8 119.3c.5-2.5 1.1-4.9 1.9-7.2-.5 2.4-1.5 6.9-1.9 7.2zm154.6-94.1c1 .1 4.4.3 3.7.5-1 .1-4.4-.3-3.7-.5zm-40.9 1c-1.6.1-3.2.7-4.8.9 1.8-.7 3.6-.8 5.4-1.7 1 0 2-.4 2.9-.4-2.3.7-1.8.5-3.5 1.2zM55.6 52.9c-.8.6-1.3 1-1.5 1.1-.2 0 0-.4.9-1.3 1.2-1.1 1.8-1.2 3.6-3.1-1 1.3-2.1 2.1-3 3.3zm71.5-24.8c1.8-.7 3.7-1.1 5.4-1.3-1.8.5-3.7 1.1-5.4 1.3zm-40.3 8.7c1-.8 2.1-1.3 3.1-1.6-1 .7-2.1 1.2-3.1 1.6zm13.8-4.1c.8-.5 1.7-.9 2.5-1.3.9-.3 1.7-.6 2.6-.8-.9.4-1.7.7-2.6 1.1-.8.3-1.6.6-2.5 1zm-11.9 4.4c-1.2.5-2.4 1.2-3.6 1.9-1.1.8-2.3 1.5-3.4 2.2.7-.7 1.7-1.4 2.9-2.2 1.3-.8 2.8-1.5 4.5-2.5.4-.3.2-.4 1.3-.8-.1.3-.5.6-1.7 1.4zM52.8 59.8c1.7-2.2 3.4-4.2 5.3-5.9-.4.5-.9 1-1.3 1.5s-.9 1-1.3 1.5c-.9 1-1.8 1.9-2.7 2.9zM116 31.4c1.3-.6 2.5-.8 3.8-1.2-.9.5.2.4-1 .9-2 .4-1.1 0-2.8.3zm7.6-2.3c.8.2 1.9-.2 3.8-.4-1.7.4-3.1.9-4.4 1.3-1.3.5-2.4.8-3.3.8 2.8-.8 2.6-1.1 3.9-1.7zm-8 1.9c.9-.1 4.4-1.3 3.8-.8-.9.2-1.8.5-2.6.7-.9.3-1.7.5-2.6.6.9-.4.6-.4-.5-.2 1.6-.7 3.2-1.2 4.8-1.5-.4.2-1.3.4-2 .7-.8.2-1.3.5-.9.5zm-32 10c1.2-.6 2.3-1.5 3.5-1.9-.9.7-4 2.5-3.5 1.9zm5.2-3c-1.3.9 1.4-.4-.4.7-1.9 1-1.3.2.4-.7zm-10.1 4.8c-1.1 1-2.2 1.7-3.3 2.5-1.2.5-2.2 1.4-3.3 2.2 1.7-1.5.9-.9 2.3-2.2.8-.3 1.4-.5 3-2 .7-.4 1.2-.6 1.3-.5zM23.4 100c.3-1.6 1.2-3.8 1-3.9.2-.3.4-.6.5-.9.1-.4.2-.7.4-1-.1.5-.3 1.5-.7 2.5-.3 1.1-.7 2.3-1.2 3.3zM3 165.5c-.1 1.4 0 2.8-.3 2.7-.2-1.6.2-4.3.3-2.7zM111.3 32.6c1.4-.5 2.8-.8 4.2-1.1-1.1.7-4.6 1.4-4.2 1.1zm-81.8 58c.8-2.1 1.8-4 2.8-5.8-.8 2.1-1.8 4-2.8 5.8zm64.1-51.2c.9-.4.5-.3 1.3-.8 1.9-.8 2-.5 4.4-2 .2-.3-2.7 1.1-1.4.1 1.8-.8 2.9-1.1 3.6-1.1-2.3 1.3-6.9 3.8-7.9 3.8zM38.5 78.3c-1.2 1.9-2.1 4.2-3.4 5.9.8-1.9 1.8-3.5 2.7-5.3.7-1 1-1.4.7-.6zm28.8-25.8c-.8.6-1.5 1.2-2.4 1.7.9-1.2 3.4-2.9 2.4-1.7zm19.9-9.6c.6-.5.7-.6.8-.8.9-.4 1.7-.8 2.6-1.1-1.1.8-2.3 1.3-3.4 1.9zM59.9 59.2c1.1-1.1 2-2.5 3.2-3.3-1 1.2-2.1 2.3-3.2 3.3zM49.8 69.3c.5-1 .9-1.4 1.3-1.8.3-.4.6-.7.8-1.2.6-.6 1-.9 1.1-.9-.5.8-1 1.5-1.5 2.1-.5.6-1.1 1.2-1.7 1.8zm7.3-8.4c-.7.6-1.4 1.4-2.1 2.2-.6.8-1.2 1.6-2 2.2.5-.8 1.3-2.1 2.3-3 .9-.9 1.7-1.5 1.8-1.4zm24.1-15.2c1-1.1 2.2-1.4 3.4-2-1.1 1-2.3 1.3-3.4 2zM55 64.2c.7-1.3 1.8-2.1 2.6-3.1.3.2-1.5 2.2-2.6 3.1zm-3.5 5.1c1.5-2.3 2.2-3.1 2.2-3.7 1.2-1.4.9-.8 1.5-1.2-.7 1.3-1.6 2.2-2.4 3.3.5-.5 1.3-1.5 1.1-1-.9 1.2-1.7 2.1-2.3 2.8-.6.7-1.2 1.3-1.9 2.1.3-.5 0-.4.7-1.5 1.2-1.5.6-.3 1.1-.8zm-4.9 5.5c.9-1.5 1.9-2.9 2.9-4.3.5-.7 1-1.4 1.5-2l1.6-1.9c0 .2-.2.7-.7 1.3-.4.6-1 1.3-1.6 2.1-1.1 1.7-2.6 3.5-3.7 4.8zm36.3-27.9c1-.7 2.1-1.3 3.1-1.9 1-.6 2-1.2 3.1-1.8-1.1.6-2 1.4-3.1 2-1 .6-2 1.2-3.1 1.7zm-12.2 6.8c0-.1.1-.3.3-.6.2-.3.6-.7 1.5-1.3 0 .1-.8 1.1-1.8 1.9zm3.1-.8c-2.2 1.5 1.4-1.5.2-.7-.5.3-1 .8-1.5 1.2-.5.5-.9.9-1.5 1.2.5-.5.9-1 1.4-1.4l1.5-1.2c1-.8 2.1-1.5 3.1-2.3-.3.7-2.5 2.2-3.2 3.2zM44 77.6c-.4.8-.8 1.5-1.3 2.2-.4.7-.8 1.3-1.1 1.7-.7.9-1.1 1.2-.9.5.5-.6.7-.8 1.1-1.3.3-.6.9-1.4 2.2-3.1zm.2 1.1l1.2-2.4c.3-.4.9-1.1.7-.6-.8.8-1 2.3-1.9 3zm13.6-13.3c-1 1-.3-.1.1-.8.5-.4.9-1 1.4-1.3l-1.5 2.1zm6.4-4.7c-.9.5-1 .3.1-1 1.7-1.4 1.2-.3-.1 1zM46 77.2c-.6 1.5-2.2 3.3-2.3 3.2 1.1-2.4 1-1.5 2.3-3.2zm12.6-10.4c-.6.5-1.1 1.1-1.6 1.7.7-1 1.2-1.5 1.6-2 .4-.5.7-.9 1.1-1.6.7-.2 1.7-1.7 3.1-2.9-1.4 1.7-3 3-4.2 4.8zm-8.7 10.3c1-1.1 2.3-2.9 3.5-4.5.3-.4.6-.8.8-1.2.3-.4.6-.7.8-1 .5-.6.9-1 1.2-1.2-.5.5-1.1 1.4-1.8 2.2-.7.9-1.4 1.9-2 2.9-.7.9-1.3 1.7-1.7 2.3-.5.4-.7.7-.8.5zm1.7-2.4c.5-.9-.6.4.4-1.1.5-.6 1-1.3 1.6-1.8-1.3 1.8-.6 1.2-2 2.9zm-8.9 14.8c-.7.8-1 2.1-1.7 3 .5-1.3 1-2.5 1.7-3.7-.1.6.2.2 0 .7zm-17.8 40.1c.3-1.8 1.1-7.1 1.3-5.5-.6 1.5-1.1 5.8-1.3 5.5zM15 180.2c0 2.4-.6-.7-.5-2.3.2 1.6.2.3.5 2.3zm10.5-51.9c.1-1.3.5-2.4.8-3.5-.2 1.4.2 1.5-.1 2.8-.1-.5-.6.6-.7.7zm.2 1.9c-.7 2.5-.6 0-.1-1.8.1.1.3-.4.1 1.8zm7.6-18.4c-.7 1.2-.8 3-1.5 4.2.6-2.5 1.3-4.9 2.1-7.3-.2 1-.4 2-.6 3.1zm-7.2 18.6l.2-2.2.5-1.4c0 1.4-.4 2.5-.7 3.6zm-2.7 8.5c-.1 1.4-.2 1.9-.3 2.5-.2.6-.4 1.1-.5 2.5 0-.9.2-2.2.3-3.2.2-1 .4-1.8.5-1.8zm-1.1 6.6l-.5 1.9c-.1-1.2.2-4.9.5-4.1-.3 1.3 0 2 0 2.2zm-5.4 51.8c-.2-1.3-.3-2.4-.4-3.7.3 1.9.6 3.7 1 5.6l.5 2.8.6 2.7c.4 1.8.8 3.7 1.2 5.5.5 1.8.9 3.6 1.3 5.4-1-2.1-.9-4.1-1.8-6.2.1 1.4.6 2.6 0 1.5-.6-2.3 0-1.3-.4-3.6-.4-1.2-.6-2.3-.8-3.4-.1-.6-.2-1.1-.3-1.7-.1-.6-.2-1.2-.4-1.8l.3 2.1c.1.7.2 1.4.2 2.1-.4-1.1-.5-2.1-.9-3.2-.2-1.9.6.5 0-2-.4-1.6 0 1.6-.5-.6-.2-1.1-.3-2.1-.4-3.2.2.1.8 2.3.8 1.7zm7.4-57.9c-.7 2.2-.6 4.8-1.1 7.1-.1-1.5-.5.2-.2-2.9.4-2.4.4-.4.6-.8.1-.8.1-1.6.2-2.3.1-.8.2-1.6.2-2.4.4-1.8.4-.4.3 1.3zm5.7-16.6c.2-1.8.4-3.6 1-5-.3 1.6-.4 3.5-1 5zm-10 35.6c0-.7-.1-1.5-.1-2.2l.3-1.5c.1 1.3.1 2.6-.2 3.7zm1.3 16.3c.1.9.1 1.7 0 2.6-.4-3.8.4-5.5.4-7.5l-.3-2.7c.5-3.9.4-7.9.7-11.9-.3-.6-.4-2.2-.4-3.4.5-.1-.1-2 .5-4.1v2.4c0 .8 0 1.5.1 2.2.1 1.4.1 2.6.3 3.6-.9 3.1-.3 9.3-.4 13.6-.1-.5-.2-3.4-.3-2.2.1 2 .1 3.8.3 5.8.1-.7 0-2.1.2-1.5-.2 1.8.3 6.5 0 6.6.1-2.5-.4-6.5-.7-4.3.2.2.3 2 .3 3.7.1 1.7.1 3.4 0 3.5 0-.9-.2-2.8-.2-4.3-.2-1.6-.3-2.7-.5-2.1zm.7 2.3c.1 0 .4 2.3.5 3.7-.3-1 .1 2.3 0 3-.4-2.3-.5-4.5-.5-6.7zm7.9-54.3c-.3 1.2-.5 2.5-.8 3.7-.3 1.2-.6 2.5-.9 3.7.5-2.4 1.1-6.9 1.7-7.4zm-5.7 19.4c.2-1 .1-2.1.5-3 .2.9-.4 4-.5 3zm-1.2 9.7c-.1-1.3.2-5.2.5-4.6-.2 1.5-.3 3.1-.5 4.6zm4.5-17.1c-.2-.1.1-2.8.6-4.1-.1 1.4-.3 2.7-.6 4.1zm-4.9 86.6c-.4-.4-1-3.1-1.3-2.6-.7-2.6 1 1 1.3 2.6zm1.9 5.6c-.1 0-.4-.6-.8-1.5-.3-.8-.7-1.9-1.1-2.6l-.3-1.5c.8 1.9 1.7 3.8 2.2 5.6zm-2.2-61.1c0-1.3-.1-5.3.2-4.7-.1 1.6 0 3.2-.2 4.7zm2.3-9c-.1-1.3-.1-2.5.2-3.6.1 1.2 0 2.5-.2 3.6zm-2.3 29.8c.2 1.3.3 2.7.5 4.1-.4-1.7-.7-1.8-.9-4.2.3 1 .1-1.2.4.1zm.9 10.6c0 .8.1 1.7.2 2.5-.1-.4-.2-.7-.3-1 0 .3 0 .5-.1 0-.2-2.8-.4-.8-.7-2.1-.1-1.2-.5-2.4-.4-3.5.6 2.3.8 2.4 1.3 4.1zm.3-5.8c0 .6 0 2-.1 1.4-.2-2.3-.8-4.8-.7-7.1.4 2.7.3 4.1.8 5.7zm61.6 138c1.3 1.4.1.5-1.3-.5-.5-.5-1-1-1.5-1.6.1-.1 1.7 1.1 2.8 2.1zM34.4 249c1 1.6 1.7 3.2 2.4 4.8-1-1.4-1.6-1.5-2.7-4.2 1 1.3 1.7 2.2.3-.6zm-9-40.2c-.4-1.9-.3-2.4-.1-2-.5-1.8-1.2-4.2-1.5-6.5-.3-2.2-.5-4.2-.4-5.1.2 2.1.5 4.5 1 6.6.5 2.1 1 4.1 1.5 5.5-.3-.7-.4 0-.3.9.3.2.4.4 1 2.5.2 1.1-.1.3-.2.4.6 1.1.4 1.1.9 3-.1-1.4.7 1.7 1 3-.1 0-.3-.5-.6-1.2s-.5-1.6-.9-2.3c-.8-3.2-.7-3.5-1.4-4.8zm.8-36.8c-.2 2.6.4 4.6.5 6.1-.2 2-.4-1-.7-2.2.2-.9-.1-2-.2-3.1.1-1.2.3-1.6.4-.8zm.1 36c.4 2.1 1 4.3 1.5 6.4-.5-1.5-1-3-1.4-4.5.2.5-.1-.5-.3-1.4-.1-.9-.2-1.6.2-.5zm0-18.4c-.2 0-.7-2.2-.7-3.6.2 1.3.7 2.5.7 3.6zm1-2.6c-.2-.6-.3-1.2-.4-1.8-.1-.6-.1-1.2-.3-1.8-.1 1.3.1 2.5-.2 1.4 0-1.5-.4-5.6 0-5.4.2 1.1.4 2.2.5 3.4.1.6.2 1.3.2 1.9.1.8.2 1.5.2 2.3zm1.7 32.8c0 .9 1.5 4.2.9 3.4-.5-1.4-1.7-4.9-.9-3.4zm-.5-10.1c-.7-2-1-4-1.5-6 .1.1.5 1.6.9 3 .3 1.5.8 2.9.6 3zm-1.2-17.9c-.2-.7-.3-.9-.4-1.1 0-1.2-.5-4.9-.2-4.4.1 1.9.7 3.8.6 5.5zm9.9 48.1c-.8-1.4-1.8-3.3-2.6-5.3-.4-1-.9-2-1.3-3.1-.2-.5-.4-1-.7-1.5l-.6-1.5c.1.7.4 1.9-.3.5.3-.6-.6-2.1-1.4-4.8.9 1.8 1.5 3.2 1.6 2.4.1.8.4 1.8.7 2.8.3 1.1.9 2.2 1.4 3.4.5 1.2 1.1 2.4 1.6 3.6.6 1.2 1.1 2.4 1.6 3.5zm75.2 112.4c-1.3-1.2-3.1-2.1-4.3-3.4 1.3.9 4.9 3.5 4.3 3.4zm-57.2-71.4c.5.9 1.1 1.7 2 2.5.9 1.8-3-2.4-4.6-4.9 2.2 2.5 2.1 2.3 2.6 2.4zm-26.3-79.2c-.4-1.5-.6-3-.9-4.4-.2-1.5-.4-3-.7-4.4.2.5.3 1 .4 1.5.1 1.2.3 2.4.5 3.7.3 1.1.5 2.4.7 3.6zM39 248c-.5-.9-1.3-2.5-2-3.8-.6-1.4-1.1-2.6-1-2.7.4.9 1.1 2.5 1.9 3.9.6 1.3 1.2 2.4 1.1 2.6zm-1.1-4.7c1 2.5 2.5 4.9 3.6 7.4-1.7-2.6-4.2-7.7-4.5-8.8.3.8.8 1.3.9 1.4zm-8-37.7c-.3-.8 0 1.1-.2.4-.1-1.3-.7-2.6-.7-3.9.4 1.2.8 2.4.9 3.5zm2.2 9.2c-.7-1.6-1.1-3.3-1.4-4.8.4 1.6 1.1 3.2 1.4 4.8zm6.9 28.9c1.7 2.6 1.6 3.1 2.3 5.1-.6-.8-.9-1.3-1.1-1.3-.1-.3-.2-.6-.4-.9.9.7.3-.6-.8-2.9zM31.7 210c.3 1.3.7 2.6 1.1 3.9.4 1.3.8 2.5 1 3.8-.8-2.5-1.1-1.7-1.7-3.8-.6-2.6.6.1 0-1.9-.3-.7-.2.5-.9-1.5-.1-1.4.2-.7.5-.5zm2.5 11.5c-.2-.2-.5-.7-1-1.9-.1-1.3-.8-2.6-1-3.8.2.3.3.6.4 1 .3 1.3.9 2.3 1.6 4.7zM47.6 259c-1.4-2-5.3-7.8-4.3-7.1 1.1 2.4 3.1 4.8 4.3 7.1zm7.7 13.2c-.9-1.1-1.9-2.2-2.6-3.4.2 0 1.9 2.1 2.6 3.4zm1.1.3c-1.8-2.6-6.8-9.1-6-9 .8 1.4 2.1 3.3 3.3 5.1 1.2 1.7 2.4 3.2 2.7 3.9zm9.8 14.9c-1.1-1-2-2.1-2.8-3.2.2-.1 2 1.9 2.8 3.2zm-1.4-3.2c.7 1.2 1.6 2.4 2.6 3.5s2.1 2.2 2.9 3.4c-.8-.6-2.1-2-3.4-3.6-1.3-1.6-2.7-3.5-3.9-4.8 1.1 1.1.4.1 1.8 1.5zm.9.7c.8 1.2 1.5 1.9 2.2 2.5.7.6 1.5 1.3 2.5 2.6-2.1-2.1-1.1-1-2.2-1.8-1.1-1.1-3.8-4.3-2.5-3.3zm11.9 13.4c-1.3-1.1-2.4-2.2-3.4-3.4.2 0 2.6 2.1 3.4 3.4zm-17.8-28.2c-1.3-1.3-2.2-2.7-3.1-4.1 1 1.4 2.2 2.6 3.1 4.1zm-.4-.9c-.4-.4-1.2-1.3-1.7-2.1s-.9-1.4-.6-1.2c.7 1.1 1.9 2.1 2.3 3.3zm4 6.3c-.7-.6.6 1.2.3.9-.9-.9-1.7-1.8-2.3-2.8 1.1 1.3.4-.3 2 1.9zm1-.8c-.2-.1-1.7-1.6-1.5-1 .9.9 1.5 1.9 2 2.9-1.8-2-3.8-3.9-5-6 2.6 3 1.8.2 4.5 4.1zm26 37.9c-1-.5-3.5-3-2.6-2.6.8.9 2 1.6 2.6 2.6zM68.3 281c-1-.9-1.8-1.8-2.4-2.8 1 1 1.8 1.8 2.4 2.8zm18.9 26.6c1.8 1.7 5.3 4.9 5.6 5.6 1.6 1.2 4 3.8 4.6 3.8.4.5.9 1 1.3 1.5-1.2-.8-2-1.7-2.3-1.6-2.1-2.1-3.2-3.2-4.1-3.5-1.5-1.6-.1-.4-.4-.9-.8-.6-1.5-1.1-2.3-1.7-1.5-2 .5-.3-2.4-3.2zm13.6 13.1c1.9 2.1-3.2-2-4.3-3.4.6.4.2-.1.7.2 2.6 2.3 1.4 1.9 3.6 3.2zm4.9 3.6c1.8 1.8-.5.2-1.9-.7-.6-.6-1.4-1.1-2-1.8 1.9 1.1 2.5 1.9 3.9 2.5zm8.8 9.3c-1.4-.9-2.7-1.9-3.8-3 1.5.9 2.7 1.9 3.8 3zm94.9 109.5c.3.5 1 1.6 1.4 2.5.5.9.7 1.6.5 1.5-.4-1.2-1.4-2.6-1.6-2.6-.2-.8-.4-1.3-.3-1.4zm-71.2-92.3c2.2 2.1-4.8-2.6-4.1-2.7 1.6 1.4 1.8 1 4.1 2.7zm74.8 99.3c.6 1.2 1.4 3 2.1 4.6.6 1.6 1.1 3 1 3.5-1-3.2-.8-1.4-1.5-2.7-.4-1.7.1-1.1.2-1.4-1-1.4-2.1-3.9-1.8-4zm5.1 14c-.3-1.2-.8-2.4-1.1-3.7.1-.1.7 1.2 1 2.3.4 1.2.5 2.2.1 1.4zM141.6 347c-1.6-1-3-2.1-4.2-3.2 1.6.9 2.9 2.1 4.2 3.2zm8 5.5c1.6.5 2.1 1.5 3.4 2.5-.8-1 1.5.4 2.4.8 1.9 1.7-3-1.5-1.2.1.5.3.4 0 1.6.8.6.5 3.2 2.6 2.3 2.1-2.3-1.9-12.4-7.9-9.5-6.9-1.7-1.3-5.9-4.1-5.9-4.5 1.3.6 6.2 4.2 6.9 5.1zm3.1 1.5c-2.3-1.5-4.5-3-6.6-4.6 2.3 1.5 4.7 2.9 6.6 4.6zm80.4 143.2c.5.2 1 .4 1.8.8.4.2.8.3 1.2.5.2.1.4.1.6.3.2.1.5.2.7.3.9.4 1.8.8 2.4 1.2.1 0 .2.1.3.1.1 0 .2-.1.3-.1.2-.1.3-.1.5-.2.3-.1.5-.1.5-.1-.2.1-.5.2-.8.4-.1.1-.3.1-.4.2-.1 0-.1.1-.2.1l-.2-.1c-.4-.2-.9-.4-1.3-.6-.5-.2-.9-.4-1.4-.7l-.7-.3c-.2-.1-.4-.2-.6-.2-.7-.3-1.5-.7-1.9-.9-.4-.4-.7-.6-.8-.7zm-72.4-137.7c.5.5 1.6 1.5 1 1.2-1-.9-1.8-1.5-2.4-1.9-.6-.4-1.1-.7-1.7-.9-.9-1.1 1.5.6 3.1 1.6zm7.8 6.7c.8.9 2.2 1.5 2.9 2.5-.7-.4-1.8-1.3-2.5-1.9-.7-.6-1.1-1-.4-.6zm-2.2-3.4c1 .9 1.3 1.3.5.9-.5-.5-1-1-1.7-1.4-.5-.3-1-.6-1.4-1 .9.5 1.7 1 2.6 1.5zM265.5 487c-.5.4-.2.4-1.4 1.1-1.1.3-2.2 1.1-3.4 1.6 1.6-1 3.2-2 4.8-2.7zm-81.4-108.1c-.4-.2 1.7 1.7 1.9 2 .6.4.2-.1.7.2 2.2 2 2.6 2.8.7 1.4l-3.3-3c-1.1-1-2.2-1.9-3.3-2.9 1.8 1.2 2.6 1.6 3.3 2.3zm90.1 104l-1.9.8c1.4-1.2 4-2.3 1.9-.8zm-79.8-94c1.3 1.1 2.6 2.3 3.5 3.6-1.4-1.2-2.5-2.3-3.6-3.5.3.2.5.3.1-.1zM294.8 470c1.1-.5 2.2-1.3 3.3-1.7-.7.5.6.2-1.4 1.2.9-.7-.2-.2-1.4.6.4-.1.5 0 .1.4-1 .4-1.9 1.2-2.8 1.5 2.2-1.6-.1-.5 2.2-2zm-88.2-69c.4.5.9 1.1 1.5 1.7.6.7 1.1 1.4 1.7 2.1 1.1 1.3 2 2.5 2.1 2.8-1-1.3-2.2-2.6-3.3-3.9.5.8 1.1 1.5 1.6 2.2-1.1-1.2-2.7-3.1-3-2.9-.5-1.1-.7-1.7-.6-2zm97.5 63.5c-.7.6-.1.4-1.3 1.3-1.1.4-.9-.2 1.3-1.3zm-90.3-54.2c1.4 2.3 1 2.2.2 1.6l-1.2-1.8c.9.8-1-2 1 .2zm94.6 52c-1.1.8-2.1 1.6-3.2 2 1-.8 2-1.6 3.2-2zm-90-46.1l-1.4-1.9c-.5-.6-.9-1.2-1.4-1.8-.9-1.2-1.8-2.4-2.6-3.7 2 2.6 2.5 3.1 4 5-.3-.2-.2-.1.1.5.5.6 1 1.2 1.3 1.9zm2.3 3.8c-.5-.5.1.5 0 .5-1-1.3-2-2.6-2.9-3.9-.5-.7-.9-1.3-1.3-2-.5-.7-.9-1.3-1.3-1.9 1.3 1.4.6.3 1.9 1.7 1 1.8 2.4 3.7 3.6 5.6zm99.1 34.7c-1.6 1.2-2.8 2.2-2.2 2-1.4.7-2.8 1.7-4.2 2.5 2.5-2-1.4.6-.1-.5 2.3-1 4.4-2.8 6.5-4zm-96.2-31.5c.5 1 .1.6.6 1.5.4.5.3.2.5.5 1.1 2.2.3 1-.8-.4-.3-.7-.6-1.3-1.1-2 .2.5-.3-.2-.9-.9l-.7-1.5c1.9 2.6 1.6 2.1 2.4 2.8zm3.1 7.1c1.1 1.6 1.8 3.4 2.7 5.1-1.2-1.7-3-5-2.7-5.1zm6.3 11.3c.7 1.6 1.6 3.2 2.1 4.8-.9-1.4-1.3-2.9-1.9-4.3.1.3.3 1 0 .5-.3-.7-.3-.9-.2-1zm4.3 12.4c-.2-.9-.6-1.8-.9-2.8-.3-.9-.7-1.8-.9-2.7.8 1.5 2.2 5.9 1.8 5.5zm-.5-1.1c.1.5.3 1.1.6 1.7.3 1.4.3 1.9 0 1.1-.2-.9-.6-1.8-.8-2.8.2.7-.1-.5.2 0zm3.4 13c-.9-3.2-1.7-6.2-2.4-9.1 1.2 3 1.7 6 2.4 9.1zm1.1 1.9c-.3-.6-.7-1.8-1-3.2-.3-1.4-.7-3-1-4.3.5 1.3.9 2.5 1.3 3.8.3 1.2.5 2.5.7 3.7zm-.2 5.9c-.1.3-.2.3-.3 1-.2-.8-.4-1.8-.2-3 .2 1.1.3 2.1.5 2zm7.7-1.2c-.2.2 0 .1.2 0 .1 0 .1-.1.2-.1s.1 0 .3-.1c.3-.1.5-.2.6-.2-.1.1-.2.2-.4.3-.1.1-.2.1-.4.2s-.3.2-.5.2c-.3.1-.6.1-.4 0 .3-.1.1-.3.4-.3zm178.9-124.3c1.1-.9 2.1-1.9 3.2-2.6-1.4 1.7-3 3.2-4.5 4.7l-1.2.9c2-2.2 1.7-1.8 2.5-3zm12.7-11.7c-1.8 1.3-3.8 3.9-3.5 3 1-.7 3.7-3.6 3.5-3zm107.1-170.9c.5 5.3 0-5.4.8.3-.2 1.8-.3 1.2-.3 3.8-.1-.5-.6-1.6-.5-4.1zm.8 6c-.1.7-.2 1.4-.2 2.2.1.9.6-.1.4 2.5-.2.4-.3-1.1-.4.4 0-3.1-.5-3-.4-6 .2-.6.4-1.7.6.9zm-73.4 126.3c.9-1.4 2-2.5 2.9-3.7.2.2-1.3 1.9-2 3.3-1.2 1.3-.2-.3-.9.4zm72.4-140.7c.1-1.5.4-.5.6-.9 0 .7.1 1.5.2 2.3.1.8.1 1.5 0 2.2-.4-1.7-.4-2-.8-3.6zm-65.5 132.3c-1.6 1.9-1 1.8-2.5 3.4-.4.3 2.7-4.3 2.5-3.4zm65.5-133.9c-.2-1.2-.3-2.3-.2-3.4.2.6.3 1.2.4 2.3-.2-.6-.2.2-.2 1.1zm-20.8-6.5c0 1.8.4 3.8.4 5.7-.4-1.8-.7-6-.4-5.7zm-.9-8.2c.2 2.5.6 5.1.7 7.6-.5-2.6-.8-5.2-.7-7.6zm-.8-3.6l.6 2.1v1.5c-.5-1.3-.5-2.5-.6-3.6zM430 16.4c-1.6-.6-.3-.5 1.4-.3 1.3.2 2.8.6 4.6 1l2.7.6c.9.2 1.9.5 2.9.7.5.2 1.4.6.9.5-2.8-.4-8.3-1.7-12.5-2.5zm-14.3-2.6c-.8-.2-1.3-.4-.9-.5 3.6.4 7.3.9 10.8 1.6-1.7-.2-3.3-.4-4.9-.6l-2.5-.3c-.8-.1-1.7-.2-2.5-.2zm69.4 43.5c.5.1 3.3 2.6 4.5 4-1.6-1.2-3-2.6-4.5-4zm-85.7-44.5c4.7-.1 8.8.2 11.2-.1.7.1 1.3.3 2 .5-1.6-.2-3.4-.1-5.6-.1-1.1 0-2.2-.1-3.5-.1-1.3 0-2.6-.1-4.1-.2zm56.1 26.5c-.8-.3-1.6-.6-2.3-.9-2-1.3 1.9.2-1.1-1.5 1.7.7 3.5 1.3 4.9 2.3-2.9-1.5-3.9-1.5-1.5.1zM360 15.7c-1.5.2.2-.4.1-.5 1.2-.2 2.5-.6 3.7-.6-1.3.4-2.5.5-3.8 1.1zm20 2c-1.4 0-2.5.6-3.2.8-2.2.1-.4-.2-.9-.3-.5.1-1 .1-1.5.1 2.6-.4 4.8-.4 3.7-.8 1.3-.1 2.1.1 1.9.2zm18.6 5.9c1.1.3 2.4 0 3.5.3-1 .2-4.4-.1-3.5-.3zm-14-.2c2.5-.2 5-.6 7.5-.3-2.6 0-5.1.5-7.5.3zm-9.7.7c1.3-.4 2.7-.5 3.9-.4-1.4.3-2.7.3-3.9.4zm.6 1.1c-1.2 0-1.7 0-1.9.3-2.1.1 2.2-.8 2.9-.7-.6.2-.8.3-1 .4zm-73.8 40.7c-.1-.1.3-.7.7-1.4.5-.7 1.1-1.5 1.6-2.1.1.2-1.4 2.5-2.3 3.5z"/><path id="XMLID_84_" class="st0" d="M29.5 133.1c0-.7-.3 1.3-.3.4-.1 2.9-.6 5.7-.9 8.4-.3 2.8-.7 5.5-.8 8.4.8-4.6 1.1-9.3 1.9-14 0-.5-.2.4-.4.9.2-1.4.2-2.8.5-4.1z"/><path id="XMLID_83_" class="st0" d="M277.7 75c0-.3-.3-.3-.4-.5.1.2.1.4.4.5z"/><path id="XMLID_82_" class="st0" d="M230.5 24.5c1.3.8 1.1.5 1.7.8-.7-.6-1.7-1-2.5-1.5 0-.1-.1-.3-.7-.8-1.5-.6.4.5 1.5 1.5z"/><path id="XMLID_81_" class="st0" d="M267.4 78.1c.2.2-.1-.4.2-.5-.2 0-.3.1-.4.1-.1.4.2.1.2.4z"/><path id="XMLID_80_" class="st0" d="M259.4 59.1c.9 1 1 1 .4-.1-.2 0-1-1-1.9-2.1-.4-.4-.1 0 .3.6.5.6 1 1.4 1.2 1.6z"/><path id="XMLID_79_" class="st0" d="M261.6 64.8c0 .2-.6-.5 0 .5 1 1.1 1.4 1.6 1.6 1.7-.5-.9-1.4-1.7-1.8-2.7-.4-.4 0 .2.2.5z"/><path id="XMLID_78_" class="st0" d="M207.5 10.6c-1.8-1-1.5-.4-2.4-.6-1.7-.4 0-.2-2-1-3.2-.8-6.1-1.6-9-2.6h-1.4c2.6.5 7.9 1.8 11.7 3.4 1.4.3 2.9.9 3.1.8z"/><path id="XMLID_77_" class="st0" d="M263.1 69.5c-3.7-5.4-6.2-8.9-10.5-13.5.4.6 1.4 1.8.8 1.3 1.4 1.9 1 1 2.5 2.8-.3-.1.9 1.5 2 2.9s1.9 2.7 1.2 1.9c.3.6 1.1 1.5 1.9 2.5.8.8 1.6 1.7 2.1 2.1z"/><path id="XMLID_76_" class="st0" d="M178.8 1.3c-.8-.2-2.9-.5-5.3-.7-1.2-.1-2.5-.3-3.7-.3h-3.3c4.1.1 8.2.6 12.3 1z"/><path id="XMLID_75_" class="st0" d="M261 87.2c.2-.1.2.1.5.2 0-.4-.2-.3-.4-.4-.1 0 0 .1-.1.2z"/><path id="XMLID_74_" class="st0" d="M254.9 58.3c-.6-.7-1.2-1.5-1.9-2.3-.6-.7-1.3-1.5-2.1-2.2.5.8 1.2 1.5 1.9 2.2.7.8 1.5 1.6 2.1 2.3z"/><path id="XMLID_73_" class="st0" d="M184.3 5.5c1.6.2-.1-.2.8-.2-1.3-.3-2.7-.4-4-.6-1.2.1 2.6.4 3.2.8z"/><path id="XMLID_72_" class="st0" d="M261.4 80.4c-.1 0-.1.1-.1.1-.2 0-.1-.2-.4-.2 0 .3 0 .5.4.6 0-.3-.2-.2.1-.5z"/><path id="XMLID_71_" class="st0" d="M231.4 39.8c-2.3-1.5-1.7-1.5-4-3.2-1.3-.5-1-.4-2.2-.9 2.1 1.2 5.5 3.9 6.2 4.1z"/><path id="XMLID_70_" class="st0" d="M120.9 6.8c1 0-3 .8-2.3.9 1.3-.1 2.6-.8 3.9-.8-.5-.2 2.6-1 .2-.8-1.5.5-3 .9-4.5 1.1-1.2.4 2-.3 2.7-.4z"/><path id="XMLID_69_" class="st0" d="M111 9c-2.5.5-5.1 1.9-7.6 2.2-.9.4-.5.3 0 .2.5-.1 1-.3.5 0 2.3-.8 4.7-1.5 7.1-2.4z"/><path id="XMLID_68_" class="st0" d="M99.5 13.1c1-.3.5.1 1.6-.2.8-.3 1.5-.6 2.3-.9.8-.3 1.5-.5 2.3-.7 1.5-.5 3.1-.9 4.6-1.3-.5-.4-5.8 1.6-8.1 2-1.8 1-3.6 1.4-5.4 1.8-3.2 1.4-3.1 1.6-5.9 2.9 1.1-.4 2.1-.8 3.2-1.2 1.5-.7-.2-.1.5-.6.5-.3 1.1-.4 1.6-.7.6-.1-1.2.7 1.1 0 1.5-.6 2-.9 2.2-1.1z"/><path id="XMLID_67_" class="st0" d="M226.8 49.5c.4.2-.1-.2-.3-.3-.5-.5-1-1-.5-.7-.6-.5-1.3-.9-2.1-1.3 1 .7 2 1.5 2.9 2.3z"/><path id="XMLID_66_" class="st0" d="M187.5 27.9c.4 0-1-.4-2.9-.9-.9-.2-2-.5-3-.7-1-.1-1.9-.2-2.5-.2.7.2 3.8.4 2.8.6 1.8.5 3.9.5 5.6 1.2z"/><path id="XMLID_65_" class="st0" d="M163.6 24c-2-.2-2.8-.6-5.9-.3.4.5 5.5 0 4.8.6 2.2-.1-1.1-.3 1.1-.3z"/><path id="XMLID_64_" class="st0" d="M69.3 42.9c.8-.9-1.6 1.1-2.2 1.4-.8.7-.3.6-1.2 1.2-.4.4-.2.3 0 .1.3-.2.6-.3.9-.5-.5.3 1.9-2 1.2-1.2.9-.5.4-.4 1.3-1z"/><path id="XMLID_63_" class="st0" d="M108.1 31.9c0-.1-1 .2-2.2.6-.6.2-1.3.4-1.8.6-.6.2-1.1.4-1.5.6.5-.6-3.3.7-4.6 1.1.1.3 1.5.2 2.3.2.1-.4.9-.7 1.9-1 .5-.2 1.2-.4 1.8-.6.7-.2 1.4-.4 2.2-.7.2-.2.7-.4 1.9-.8z"/><path id="XMLID_62_" class="st0" d="M92.9 37.1c-.2 0-.6.1-1.1.4-.5.3-1.2.6-1.9 1-1.4.8-3 1.6-4.1 2.1-.6.5.1.1.9-.3s1.5-.8.9-.3c.9-.5 3.3-2.1 5.3-2.9z"/><path id="XMLID_61_" class="st0" d="M97.5 36c1.8-1-.2-.1-.9.3-.8.3-.8.2-.5-.1-.7.3-1.5.7-2.2 1 .8-.3 1.5-.1-1.3.8-.5.3.8-.1 1.4-.3 1.1-.7 2.3-1.3 3.5-1.7z"/><path id="XMLID_60_" class="st0" d="M75.7 48.4c.7-.5 1.3-1 2-1.4 1.5-1.2-.4-.1 1.1-1.3-1.2 1-1.2 1.1-3.1 2.7z"/><path id="XMLID_59_" class="st0" d="M61 65.5c0-.3.4-.6 1.2-1.7-1.3 1.2.6-1.1-1.2.7l-.9 1.2c.7-.5 1.4-1-.5.9-.8 1 .9-1 1.4-1.1z"/><path id="XMLID_58_" class="st0" d="M38.1 92c.6-1.1 0-.3-.3.4-.2.2-.1-.3.2-1.2-.4.7-.8 1.6-.9 2.2-.1.6-.1.8.4 0 .1-.5.3-1 .6-1.4z"/><path id="XMLID_57_" class="st0" d="M15.8 145.3c-.1.7-.1.9 0 .6 0 1.7-.7 3-.4 4.8.4-1.6.4-3.5.6-5.3 0-.5-.2.6-.2-.1z"/><path id="XMLID_56_" class="st0" d="M35.8 110.8c.8-1.7 1.5-3.5 2.1-5.5-1.1 1.9-1.8 4.1-2.7 6.2 0 .6-.3 1.7-.6 3-.2.6-.4 1.3-.6 1.9-.2.7-.3 1.3-.4 2-.1-.6 2.3-6.9 2.2-7.6z"/><path id="XMLID_55_" class="st0" d="M33.5 116.6c-.7 2.6-1.1 5.3-2 7.7.3.4-.2 2.3-.7 4.6-.3 1.1-.6 2.4-.8 3.5-.2 1.2-.4 2.3-.4 3.3.1.1.4-1 .4-.3.2-1.1.2-2.2.4-3.3.2-1.1.4-2.1.9-3.1.2-1.6.5-3.2.8-4.7l1.2-4.5c0-.6-.4.7-.6 1.3.1-1.5.7-2.8.8-4.5z"/><path id="XMLID_54_" class="st0" d="M36.3 112.4c-.2.1-.5.8-1 1.9-.4 1.1-1 2.5-1.3 4.1-.8 3.1-1.7 6.4-1.7 7.7.2-1.1.5-2.4.9-3.7.3-1.3.7-2.6 1-3.9.3-1.3.7-2.5 1.1-3.5.3-1.1.7-2 1-2.6z"/><path id="XMLID_53_" class="st0" d="M28.4 148.6c-.3 2-.4 4-.6 6 .1 0 .2-1 .3-2.3 0-.6.1-1.4.1-2 .1-.7.2-1.3.2-1.7z"/><path id="XMLID_52_" class="st0" d="M27.2 175.8c-.2 3.1.3 10.5 1.1 15.3.1-2-.5-4.2-.2-4.8-.6-.5-.3-4-.7-6 0-1.8.5 1.5.3-1.3-.1.4-.2.3-.3-.3-.1-.7-.2-1.7-.2-2.9z"/><path id="XMLID_51_" class="st0" d="M27.8 175c-.2 0-.2 1-.1 2.3.1 1.3.3 2.8.3 3.6.3 1.1 0-1.9.2-2.4-.5-1.7-.5-1.3-.4-3.5z"/><path id="XMLID_50_" class="st0" d="M28.4 192.1c.1 1.7.4 3.4.6 5.1.1.9.3 1.7.4 2.6.2.9.4 1.7.6 2.6.4-1.5-1-7.1-1.6-10.3z"/><path id="XMLID_49_" class="st0" d="M44.3 243.1c.7 1.3 1.4 2.6 2.7 4.9-.2-.4-.4-.9-.5-1.4-1-1.1-1.3-2.3-2.2-3.5z"/><path id="XMLID_48_" class="st0" d="M60.5 267.4c-.7-.8-1.5-1.6-2.2-2.4 1.4 2.2 2 2 3.5 4.5.9.8-1-1.6-1.3-2.1z"/><path id="XMLID_47_" class="st0" d="M79.2 290.4c0 .9 2.4 2.1 3.6 4.3.2.1.4.1 1 .6-1.4-1.7-3.1-3.3-4.6-4.9z"/><path id="XMLID_46_" class="st0" d="M115.4 324.1c-1-.9-.4-.1.3.4.6.7-.5-.1-.8-.1 1.3 1.1 3 2.1 4.1 3.3 2.2 1 4.1 3 6.4 4.8 2 1.4-.8-.9 1.2.5-2.5-1.8-4.6-3.8-7.2-5.5-.7-.7-.2-.4-.9-1.2-.1.2-2-1.2-3.1-2.2z"/><path id="XMLID_45_" class="st0" d="M184.6 378.1c1.9 2.1 4.8 3.9 6.6 6 .5.4-.5-.7-.9-1.3-2.2-1.4-3.5-3.3-5.7-4.7z"/><path id="XMLID_44_" class="st0" d="M224 422.7c-.1 0 .8 1.6 1.7 3.2.9 1.6 1.9 3.2 2 3.3-1.1-2.3-2.5-4.4-3.7-6.5z"/><path id="XMLID_39_" class="st0" d="M241.5 471.4c.2.2.3 0 .5.1 0-.5-.1-1-.2-1.4-.2.5.1.7.1 1.1-.1.4-.3-1.2-.4.2z"/><path id="XMLID_38_" class="st0" d="M389.2 380.2c-.1.5 3-2.3 4.2-3 .4-.4.2-.3 0-.1-.3.2-.6.3-.9.5-1.1 1-2.2 1.7-3.3 2.6z"/><path id="XMLID_17_" class="st0" d="M527.3 257.8c1.5-2.8 2.8-5.8 4.3-8.6.1-.7.7-2 1.4-3.5.6-1.5 1.4-3.1 2-4.4.1-.4-.1-.1.1-.7-.3.5-.2.2-.1-.1-1.1 3-2.3 5.9-3.6 8.7-1.5 2.9-2.8 5.7-4.1 8.6z"/><path id="XMLID_16_" class="st0" d="M521.3 127.4c-.7-2.6-.2.6-.9-2.1.1.5.2 1 .2 1.5l.3 1c-.4-2.6.7 2.2.4-.4z"/><path id="XMLID_15_" class="st0" d="M515.7 105.8c-.6-2.6-.4.3-1.2-2.3-.5-.8.5 2.1 1 2.8-.2-1.1-.2-1.4.2-.5z"/></g></svg>